<svg width="48" height="23" viewBox="0 0 48 23" fill="none" xmlns="http://www.w3.org/2000/svg"><path d="M40.952 21.838a1 1 0 0 0 1.385-.289l4.932-7.528a1 1 0 0 0-1.673-1.096l-4.384 6.692-6.692-4.385a1 1 0 0 0-1.096 1.673l7.528 4.933zM1.622 10.285c7.107-5.637 15.702-8.61 23.022-7.36 3.642.62 6.987 2.287 9.727 5.22 2.746 2.939 4.928 7.196 6.15 13.06l1.958-.408c-1.278-6.136-3.596-10.754-6.647-14.018-3.056-3.27-6.805-5.136-10.851-5.826C16.926-.422 7.77 2.855.379 8.718l1.242 1.567z" fill="#48639C"/></svg>