<svg width="62" height="73" viewBox="0 0 62 73" fill="none" xmlns="http://www.w3.org/2000/svg"><path fill-rule="evenodd" clip-rule="evenodd" d="M32.305 12.954c5.988.198 8.817 4.968 13.43 8.483 4.587 3.494 7.006 3.487 9.038 8.634 2.143 5.426 7.897 9.825 7.163 15.558-.775 6.054-5.999 10.71-11.034 14.677-5.41 4.263-11.485 9.068-18.597 8.671-7.027-.392-11.487-6.668-17.026-10.659C9.997 54.513 2.875 52.052.71 46.215c-2.173-5.86 1.117-12.033 3.465-17.834 2.248-5.552 4.227-11.8 9.762-14.835 5.393-2.958 12.092-.8 18.368-.592z" fill="#48639C" fill-opacity=".1"/><rect x="11" y="49" width="41" height="21" rx="1" fill="#fff" filter="url(#a)"/><path fill="#DCE1E5" d="M17 61.725h30v3H17z"/><rect x="31.862" y="58.725" width="15.362" height="15.362" rx="1" transform="rotate(-135 31.862 58.725)" fill="#48639C"/><path d="M34.903 49.35h.063l.044-.044.043-.044V49.2c0-1.174-.311-2.056-.95-2.73l-.005-.005c-.885-.85-2.047-.85-2.09-.85h-.15v.487a.153.153 0 0 0 .087.138.193.193 0 0 0 .04.014.49.49 0 0 0 .048.008l.054.006.072.009c.103.012.245.033.41.075.328.085.738.252 1.084.597.502.502.764 1.232.764 2.25v.15h.486z" fill="#fff" stroke="#fff" stroke-width=".3"/><path d="M29.112 49.35h.276l.211.204V49.2c0-1.018.262-1.748.763-2.25a2.45 2.45 0 0 1 1.086-.58 2.829 2.829 0 0 1 .552-.084h.326v-2.32h-.636v1.698c-.425.055-1.17.23-1.775.836-.642.642-.953 1.56-.953 2.699v.15h.15z" fill="#fff" stroke="#fff" stroke-width=".3"/><path d="M30.578 43.004a1.429 1.429 0 1 0 2.858.001 1.429 1.429 0 0 0-2.858 0zm.637 0a.79.79 0 0 1 .793-.792.79.79 0 0 1 .793.792.791.791 0 0 1-.793.793.77.77 0 0 1-.793-.793zm-3.365 7.273a1.429 1.429 0 1 0 2.858.001 1.429 1.429 0 0 0-2.858 0zm.637.034c0-.453.367-.793.793-.793a.79.79 0 0 1 .792.793.77.77 0 0 1-.793.792.77.77 0 0 1-.792-.792zm4.818-.034a1.429 1.429 0 1 0 2.858.001 1.429 1.429 0 0 0-2.858 0zm.637.034a.79.79 0 0 1 .792-.793c.426 0 .793.34.793.793a.77.77 0 0 1-.793.792.77.77 0 0 1-.792-.792z" fill="#fff" stroke="#fff" stroke-width=".3"/><rect x="11" y="10" width="41" height="21" rx="1" fill="#fff" filter="url(#b)"/><path fill="#DCE1E5" d="M17 21.725h30v3H17z"/><rect x="39" y="16.362" width="15.362" height="15.362" rx="1" transform="rotate(180 39 16.362)" fill="#FB6970"/><path d="M35.753 7.972l-3.725-3.725A.844.844 0 0 0 31.432 4h-3.588a.844.844 0 0 0-.844.844v3.588c0 .224.089.438.247.596l3.725 3.725c.33.33.863.33 1.193 0l3.588-3.588a.844.844 0 0 0 0-1.193zm-.398.795l-3.588 3.588a.281.281 0 0 1-.398 0l-3.724-3.724a.279.279 0 0 1-.082-.2V4.845c0-.155.126-.281.28-.281h3.589a.28.28 0 0 1 .199.082l3.724 3.724c.11.11.11.289 0 .398zM29.531 6.18a.352.352 0 1 1 0 .704.352.352 0 0 1 0-.704zm0-.492a.844.844 0 1 0 0 1.687.844.844 0 0 0 0-1.687z" fill="#fff" stroke="#fff" stroke-width=".3"/><path stroke="#48639C" stroke-opacity=".3" stroke-width=".6" d="M31.8 31v7"/><defs><filter id="a" x="9" y="48" width="45" height="25" filterUnits="userSpaceOnUse" color-interpolation-filters="sRGB"><feFlood flood-opacity="0" result="BackgroundImageFix"/><feColorMatrix in="SourceAlpha" values="0 0 0 0 0 0 0 0 0 0 0 0 0 0 0 0 0 0 127 0"/><feOffset dy="1"/><feGaussianBlur stdDeviation="1"/><feColorMatrix values="0 0 0 0 0.129412 0 0 0 0 0.184314 0 0 0 0 0.309804 0 0 0 0.15 0"/><feBlend in2="BackgroundImageFix" result="effect1_dropShadow"/><feBlend in="SourceGraphic" in2="effect1_dropShadow" result="shape"/></filter><filter id="b" x="9" y="9" width="45" height="25" filterUnits="userSpaceOnUse" color-interpolation-filters="sRGB"><feFlood flood-opacity="0" result="BackgroundImageFix"/><feColorMatrix in="SourceAlpha" values="0 0 0 0 0 0 0 0 0 0 0 0 0 0 0 0 0 0 127 0"/><feOffset dy="1"/><feGaussianBlur stdDeviation="1"/><feColorMatrix values="0 0 0 0 0.129412 0 0 0 0 0.184314 0 0 0 0 0.309804 0 0 0 0.15 0"/><feBlend in2="BackgroundImageFix" result="effect1_dropShadow"/><feBlend in="SourceGraphic" in2="effect1_dropShadow" result="shape"/></filter></defs></svg>