<svg width="62" height="70" viewBox="0 0 62 70" fill="none" xmlns="http://www.w3.org/2000/svg"><path fill-rule="evenodd" clip-rule="evenodd" d="M28.973 62.423c-6.566.48-13.664 3.476-19.256-.316C4.043 58.259 1.957 50.35.62 43.197-.603 36.642-.046 29.79 2.548 23.733c2.392-5.585 7-9.388 11.809-12.61 4.47-2.995 9.382-5.408 14.616-5.096 5.069.302 9.106 3.998 13.503 6.772 5.027 3.172 11.388 4.879 13.972 10.561 2.7 5.937 1.412 13.056-.348 19.401-1.789 6.45-4.518 12.936-9.655 16.659-5.037 3.651-11.442 2.562-17.472 3.003z" fill="#48639C" fill-opacity=".1"/><path d="M3 17a1 1 0 0 1 1-1h47a1 1 0 0 1 1 1v38a1 1 0 0 1-1 1H4a1 1 0 0 1-1-1V17z" fill="#fff" filter="url(#a)"/><path d="M4 56a1 1 0 0 1-1-1V17a1 1 0 0 1 1-1h24v40H4z" fill="#48639C"/><path d="M31 20h17v3H31v-3zm0 5h11v3H31v-3z" fill="#DCE1E5"/><rect x="19" y="37" width="41" height="13" rx="1" fill="#FB6970" filter="url(#b)"/><path d="M50.729 40.258l.108.567h5.83a.38.38 0 0 1 .375.455l-.05-.01.05.01-.602 2.844-.049-.01.049.01a.382.382 0 0 1-.375.301h-4.542l.147.775h4.07c.178 0 .322.117.369.271.17.168.274.399.274.654a.932.932 0 0 1-.939.925.932.932 0 0 1-.938-.925m-3.777-5.867l3.919 5.48a.859.859 0 0 0-.092.387h-.05m-3.777-5.867a.382.382 0 0 0-.377-.308h-1.185a.215.215 0 0 0-.217.214v.11c0 .118.098.213.217.213h1.052l.959 5.034m-.449-5.263l.502 5.278m3.275.59c0-.135.029-.267.086-.389h-1.85m1.764.388l-1.765-.388m0 0a.91.91 0 0 1 .087.388m-.087-.388l.037.388m.05 0h-.05m.05 0h-.05m.05 0a.932.932 0 0 1-.94.925.932.932 0 0 1-.938-.925.92.92 0 0 1 .227-.604m1.6.604a.882.882 0 0 1-.888.875.882.882 0 0 1-.889-.875c0-.227.088-.433.231-.589m-.053-.015l.004.025.05-.01m-.054-.015a.747.747 0 0 1 .017-.019l.036.034m1.052.589a.391.391 0 0 1-.394.388.392.392 0 0 1-.395-.388c0-.213.177-.388.395-.388.218 0 .394.175.394.388zm3.161.388a.391.391 0 0 1-.394-.388c0-.213.176-.388.394-.388.219 0 .395.175.395.388a.392.392 0 0 1-.395.388zm-4.505-5.15h5.53l-.535 2.525H51.42l-.48-2.526z" fill="#fff" stroke="#fff" stroke-width=".1"/><path stroke="#212F4F" stroke-opacity=".2" stroke-width="3" d="M24 43.5h21"/><defs><filter id="a" x="1" y="15" width="53" height="44" filterUnits="userSpaceOnUse" color-interpolation-filters="sRGB"><feFlood flood-opacity="0" result="BackgroundImageFix"/><feColorMatrix in="SourceAlpha" values="0 0 0 0 0 0 0 0 0 0 0 0 0 0 0 0 0 0 127 0"/><feOffset dy="1"/><feGaussianBlur stdDeviation="1"/><feColorMatrix values="0 0 0 0 0.129412 0 0 0 0 0.184314 0 0 0 0 0.309804 0 0 0 0.15 0"/><feBlend in2="BackgroundImageFix" result="effect1_dropShadow"/><feBlend in="SourceGraphic" in2="effect1_dropShadow" result="shape"/></filter><filter id="b" x="17" y="36" width="45" height="17" filterUnits="userSpaceOnUse" color-interpolation-filters="sRGB"><feFlood flood-opacity="0" result="BackgroundImageFix"/><feColorMatrix in="SourceAlpha" values="0 0 0 0 0 0 0 0 0 0 0 0 0 0 0 0 0 0 127 0"/><feOffset dy="1"/><feGaussianBlur stdDeviation="1"/><feColorMatrix values="0 0 0 0 0.129412 0 0 0 0 0.184314 0 0 0 0 0.309804 0 0 0 0.15 0"/><feBlend in2="BackgroundImageFix" result="effect1_dropShadow"/><feBlend in="SourceGraphic" in2="effect1_dropShadow" result="shape"/></filter></defs></svg>