<svg width="62" height="70" viewBox="0 0 62 70" fill="none" xmlns="http://www.w3.org/2000/svg"><path fill="#fff" d="M0 0h62v70H0z"/><path fill-rule="evenodd" clip-rule="evenodd" d="M32.054 7.922c5.416.518 11.224.347 15.474 3.968 4.17 3.554 5.051 9.627 6.798 15.01 1.787 5.509 4.42 10.912 3.476 16.655-1.024 6.228-4.076 12.154-8.83 15.926-4.782 3.794-10.961 4.382-16.918 4.505-6.067.126-12.141-.564-17.4-3.797-5.69-3.498-10.838-8.407-13.136-14.974-2.351-6.721-1.82-14.277.555-20.99 2.301-6.505 6.55-12.342 12.354-15.499C19.8 5.806 26.05 7.35 32.054 7.922z" fill="#48639C" fill-opacity=".1"/><path d="M3 16a1 1 0 0 1 1-1h48a1 1 0 0 1 1 1v38a1 1 0 0 1-1 1H4a1 1 0 0 1-1-1V16z" fill="#fff" filter="url(#a)"/><path d="M40.625 23.184V10.91c0-2.708-2.25-4.91-5.02-4.91H13.02C10.251 6 8 8.202 8 10.91v12.274c0 2.708 2.25 4.91 5.02 4.91v4.158c0 .613.713.966 1.215.598l6.494-4.764h14.877c2.768.008 5.019-2.194 5.019-4.902z" fill="#48639C" filter="url(#b)"/><circle cx="17" cy="17.25" r="2.25" fill="#fff"/><circle cx="24.875" cy="17.25" r="2.25" fill="#fff"/><circle cx="32.75" cy="17.25" r="2.25" fill="#fff"/><path d="M3 35c5.357 6 8.482 8 16.518 8C33.224 43 49.027 38.576 53 23" stroke="#DCE1E5"/><path d="M54.218 44.457l6.55.914c1.175.162 1.65 1.549.8 2.344l-4.744 4.424 1.119 6.252c.047.253.02.514-.08.752s-.27.445-.486.596a1.484 1.484 0 0 1-1.514.1l-5.864-2.953-5.863 2.952a1.44 1.44 0 0 1-.668.162c-.832 0-1.574-.717-1.412-1.609l1.125-6.252-4.744-4.424c-.856-.795-.381-2.182.793-2.344l6.55-.914 2.932-5.692a1.36 1.36 0 0 1 .524-.562c.227-.135.49-.206.757-.203.27-.002.534.068.763.204.228.135.413.33.53.561l2.932 5.692z" fill="#FB6970"/><defs><filter id="a" x="1" y="14" width="54" height="44" filterUnits="userSpaceOnUse" color-interpolation-filters="sRGB"><feFlood flood-opacity="0" result="BackgroundImageFix"/><feColorMatrix in="SourceAlpha" values="0 0 0 0 0 0 0 0 0 0 0 0 0 0 0 0 0 0 127 0"/><feOffset dy="1"/><feGaussianBlur stdDeviation="1"/><feColorMatrix values="0 0 0 0 0.129412 0 0 0 0 0.184314 0 0 0 0 0.309804 0 0 0 0.15 0"/><feBlend in2="BackgroundImageFix" result="effect1_dropShadow"/><feBlend in="SourceGraphic" in2="effect1_dropShadow" result="shape"/></filter><filter id="b" x="6" y="5" width="36.625" height="31" filterUnits="userSpaceOnUse" color-interpolation-filters="sRGB"><feFlood flood-opacity="0" result="BackgroundImageFix"/><feColorMatrix in="SourceAlpha" values="0 0 0 0 0 0 0 0 0 0 0 0 0 0 0 0 0 0 127 0"/><feOffset dy="1"/><feGaussianBlur stdDeviation="1"/><feColorMatrix values="0 0 0 0 0.129412 0 0 0 0 0.184314 0 0 0 0 0.309804 0 0 0 0.15 0"/><feBlend in2="BackgroundImageFix" result="effect1_dropShadow"/><feBlend in="SourceGraphic" in2="effect1_dropShadow" result="shape"/></filter></defs></svg>