<svg width="62" height="70" viewBox="0 0 62 70" fill="none" xmlns="http://www.w3.org/2000/svg"><path fill-rule="evenodd" clip-rule="evenodd" d="M33.727 4.055c-7.315.75-8.754 10.136-14.607 14.116C13.504 21.99 3.505 20.747.69 26.52c-2.78 5.702 3.578 11.555 5.863 17.43 2.226 5.72 2.4 12.303 7.328 16.47 5.24 4.433 12.645 7.046 19.846 6.51 6.96-.518 13.396-4.31 17.575-9.295 3.624-4.324-.157-10.276 1.233-15.529 1.221-4.618 7.01-9.607 6.399-14.32-.687-5.29-3.914-8.947-7.931-12.889C46.149 10.136 40.9 3.318 33.727 4.055z" fill="#48639C" fill-opacity=".1"/><rect x="5" y="10" width="43" height="48" rx="2" fill="#48639C" filter="url(#a)"/><rect x="10" y="22" width="33" height="31" rx="1" fill="#fff"/><path fill="#DCE1E5" d="M15 27h24v3H15z"/><path fill="#212F4F" d="M20 16h13v2H20z"/><path fill="#DCE1E5" d="M15 33h24v3H15zm0 6h24v3H15zm0 6h16v3H15z"/><g filter="url(#b)"><path d="M55.56 33.318l-.878-.879a1.5 1.5 0 0 0-2.121 0l-8.012 8.012a1 1 0 0 0-.287.597l-.258 2.327a.563.563 0 0 0 .62.621l2.328-.258a1 1 0 0 0 .597-.287l8.012-8.012a1.5 1.5 0 0 0 0-2.121z" fill="#FB6970"/><path d="M51.147 31.025l-8.012 8.012a3 3 0 0 0-.86 1.79l-.26 2.327a2.562 2.562 0 0 0 2.83 2.83l2.328-.258a3 3 0 0 0 1.79-.86l8.012-8.012a3.5 3.5 0 0 0 0-4.95l-.879-.879-1.414 1.414 1.414-1.414a3.5 3.5 0 0 0-4.95 0z" stroke="#FB6970" stroke-width="4"/></g><g clip-path="url(#c)"><path d="M55.56 33.318l-.878-.878a1.5 1.5 0 0 0-2.121 0L44.3 40.7l-.297 2.675a.563.563 0 0 0 .62.622l2.677-.298 8.26-8.26a1.5 1.5 0 0 0 0-2.12zm-7.7 6.822a.375.375 0 0 0 .53 0l4.235-4.234.705.704-5.252 5.251v-.814h-1.125v-1.125h-.814l5.251-5.251.705.704-4.235 4.235a.375.375 0 0 0 0 .53zm-.903 2.843l-1.383.154-.71-.71.153-1.383.466-.466h.814v1.125h1.125v.815l-.465.465zm8.073-8.074l-1.17 1.17-1.94-1.939 1.171-1.17a.75.75 0 0 1 1.06 0l.88.879a.75.75 0 0 1 0 1.06z" fill="#fff"/></g><defs><filter id="a" x="3" y="9" width="47" height="52" filterUnits="userSpaceOnUse" color-interpolation-filters="sRGB"><feFlood flood-opacity="0" result="BackgroundImageFix"/><feColorMatrix in="SourceAlpha" values="0 0 0 0 0 0 0 0 0 0 0 0 0 0 0 0 0 0 127 0"/><feOffset dy="1"/><feGaussianBlur stdDeviation="1"/><feColorMatrix values="0 0 0 0 0.129412 0 0 0 0 0.184314 0 0 0 0 0.309804 0 0 0 0.15 0"/><feBlend in2="BackgroundImageFix" result="effect1_dropShadow"/><feBlend in="SourceGraphic" in2="effect1_dropShadow" result="shape"/></filter><filter id="b" x="37.999" y="27" width="24.001" height="24.001" filterUnits="userSpaceOnUse" color-interpolation-filters="sRGB"><feFlood flood-opacity="0" result="BackgroundImageFix"/><feColorMatrix in="SourceAlpha" values="0 0 0 0 0 0 0 0 0 0 0 0 0 0 0 0 0 0 127 0"/><feOffset dy="1"/><feGaussianBlur stdDeviation="1"/><feColorMatrix values="0 0 0 0 0.129412 0 0 0 0 0.184314 0 0 0 0 0.309804 0 0 0 0.15 0"/><feBlend in2="BackgroundImageFix" result="effect1_dropShadow"/><feBlend in="SourceGraphic" in2="effect1_dropShadow" result="shape"/></filter><clipPath id="c"><path fill="#fff" transform="translate(44 32)" d="M0 0h12v12H0z"/></clipPath></defs></svg>