<svg width="62" height="70" viewBox="0 0 62 70" fill="none" xmlns="http://www.w3.org/2000/svg"><path fill-rule="evenodd" clip-rule="evenodd" d="M30.114 6.34c6.23-1.08 12.837.45 18.065 3.994 5.324 3.61 8.895 9.314 10.667 15.485 1.728 6.021 1.603 12.59-.97 18.304-2.42 5.377-7.791 8.387-12.593 11.823-4.77 3.413-9.303 7.804-15.169 8.043-5.964.242-11.153-3.433-16.095-6.77C8.905 53.767 2.566 50.5 1.228 44.487-.095 38.543 4.656 33.195 7.467 27.79c2.317-4.454 4.986-8.44 8.634-11.895 4.206-3.983 8.299-8.564 14.013-9.554z" fill="#48639C" fill-opacity=".1"/><path d="M5 16a1 1 0 0 1 1-1h42a1 1 0 0 1 1 1v14a1 1 0 0 1-1 1H6a1 1 0 0 1-1-1V16z" fill="#fff" filter="url(#a)"/><path d="M5 16a1 1 0 0 1 1-1h15v16H6a1 1 0 0 1-1-1V16z" fill="#FB6970"/><path d="M13 36a1 1 0 0 1 1-1h42a1 1 0 0 1 1 1v14a1 1 0 0 1-1 1H14a1 1 0 0 1-1-1V36z" fill="#fff" filter="url(#b)"/><path d="M13 36a1 1 0 0 1 1-1h15v16H14a1 1 0 0 1-1-1V36z" fill="#48639C"/><path d="M9.071 19C8.484 19 8 19.474 8 20.05v4.9c0 .576.484 1.05 1.071 1.05h7.858c.587 0 1.071-.474 1.071-1.05v-4.9c0-.576-.484-1.05-1.071-1.05H9.07zm.06.7h7.734l-3.623 3.278c-.17.153-.322.153-.491 0L9.13 19.7zm-.417.572l3.55 3.22c.409.37 1.055.37 1.465 0l3.557-3.22v4.678c0 .2-.153.35-.358.35H9.072a.345.345 0 0 1-.357-.35v-4.678zM17.071 39c-.587 0-1.071.474-1.071 1.05v4.9c0 .576.484 1.05 1.071 1.05h7.858c.587 0 1.071-.474 1.071-1.05v-4.9c0-.576-.484-1.05-1.071-1.05H17.07zm.06.7h7.734l-3.623 3.278c-.17.153-.322.153-.491 0L17.13 39.7zm-.417.572l3.55 3.22c.409.37 1.055.37 1.465 0l3.557-3.22v4.678c0 .2-.153.35-.358.35h-7.857a.345.345 0 0 1-.357-.35v-4.678z" fill="#fff"/><path fill="#DCE1E5" d="M24 19h22v3H24zm8 20h22v3H32zm-8-15h11v3H24zm8 20h11v3H32z"/><defs><filter id="a" x="3" y="14" width="48" height="20" filterUnits="userSpaceOnUse" color-interpolation-filters="sRGB"><feFlood flood-opacity="0" result="BackgroundImageFix"/><feColorMatrix in="SourceAlpha" values="0 0 0 0 0 0 0 0 0 0 0 0 0 0 0 0 0 0 127 0"/><feOffset dy="1"/><feGaussianBlur stdDeviation="1"/><feColorMatrix values="0 0 0 0 0.129412 0 0 0 0 0.184314 0 0 0 0 0.309804 0 0 0 0.15 0"/><feBlend in2="BackgroundImageFix" result="effect1_dropShadow"/><feBlend in="SourceGraphic" in2="effect1_dropShadow" result="shape"/></filter><filter id="b" x="11" y="34" width="48" height="20" filterUnits="userSpaceOnUse" color-interpolation-filters="sRGB"><feFlood flood-opacity="0" result="BackgroundImageFix"/><feColorMatrix in="SourceAlpha" values="0 0 0 0 0 0 0 0 0 0 0 0 0 0 0 0 0 0 127 0"/><feOffset dy="1"/><feGaussianBlur stdDeviation="1"/><feColorMatrix values="0 0 0 0 0.129412 0 0 0 0 0.184314 0 0 0 0 0.309804 0 0 0 0.15 0"/><feBlend in2="BackgroundImageFix" result="effect1_dropShadow"/><feBlend in="SourceGraphic" in2="effect1_dropShadow" result="shape"/></filter></defs></svg>