<svg width="63" height="70" viewBox="0 0 63 70" fill="none" xmlns="http://www.w3.org/2000/svg"><path fill-rule="evenodd" clip-rule="evenodd" d="M29.379 6.335c6.921-1.84 13.39 4.307 19.113 8.632 5.637 4.26 12.015 8.892 13.303 15.863 1.252 6.773-3.51 12.937-6.87 18.939-2.717 4.852-5.755 9.656-10.626 12.304-4.51 2.452-9.813 2.031-14.92 1.587-4.682-.408-9.305-1.322-13.155-4.03-3.902-2.744-6.494-6.782-8.435-11.154-2.15-4.842-4.985-10.162-3.253-15.171 1.725-4.992 8.317-5.936 11.888-9.813 4.974-5.4 5.878-15.276 12.955-17.157z" fill="#48639C" fill-opacity=".1"/><g filter="url(#a)"><path d="M9 19a3 3 0 0 1 3-3h41a3 3 0 0 1 3 3v32H9V19z" fill="#536181"/><path fill-rule="evenodd" clip-rule="evenodd" d="M60.928 52.294L61 51.23c.005-.107-.11-.214-.231-.214L4.244 51c-.127 0-.25.12-.244.239.032.704.065 1.04.065 1.04.019.39.371.707.789.707L60.136 53c.444-.034.792-.249.792-.706z" fill="#212F4F"/></g><path fill="#fff" d="M11 19h43v30H11z"/><path fill="#48639C" d="M22 32h3v10h-3zm6 1h3v9h-3zm6-4h3v13h-3zm6-4h3v17h-3zm6 3h3v14h-3z"/><path stroke="#48639C" stroke-opacity=".3" stroke-width=".6" d="M13 42.3h37"/><rect x="2" y="28" width="18" height="16" rx="2" fill="#FB6970" filter="url(#b)"/><path d="M15.063 32H6.937C6.42 32 6 32.448 6 33v6c0 .552.42 1 .938 1h8.125c.517 0 .937-.448.937-1v-6c0-.552-.42-1-.938-1zm-8.126.667h8.125c.172 0 .313.15.313.333v.862c-.428.386-1.04.917-2.941 2.528-.33.279-.98.952-1.434.943-.453.009-1.105-.664-1.434-.943-1.902-1.61-2.513-2.142-2.941-2.528V33c0-.183.14-.333.313-.333zm8.125 6.666H6.938c-.172 0-.313-.15-.313-.333v-4.27c.445.389 1.148.99 2.553 2.18.4.342 1.107 1.094 1.822 1.09.71.006 1.412-.74 1.822-1.09a234.553 234.553 0 0 0 2.553-2.18V39c0 .183-.14.333-.313.333z" fill="#fff" stroke="#fff" stroke-width=".3"/><defs><filter id="a" x="2" y="15" width="61" height="41" filterUnits="userSpaceOnUse" color-interpolation-filters="sRGB"><feFlood flood-opacity="0" result="BackgroundImageFix"/><feColorMatrix in="SourceAlpha" values="0 0 0 0 0 0 0 0 0 0 0 0 0 0 0 0 0 0 127 0"/><feOffset dy="1"/><feGaussianBlur stdDeviation="1"/><feColorMatrix values="0 0 0 0 0.129412 0 0 0 0 0.184314 0 0 0 0 0.309804 0 0 0 0.15 0"/><feBlend in2="BackgroundImageFix" result="effect1_dropShadow"/><feBlend in="SourceGraphic" in2="effect1_dropShadow" result="shape"/></filter><filter id="b" x="0" y="27" width="22" height="20" filterUnits="userSpaceOnUse" color-interpolation-filters="sRGB"><feFlood flood-opacity="0" result="BackgroundImageFix"/><feColorMatrix in="SourceAlpha" values="0 0 0 0 0 0 0 0 0 0 0 0 0 0 0 0 0 0 127 0"/><feOffset dy="1"/><feGaussianBlur stdDeviation="1"/><feColorMatrix values="0 0 0 0 0.129412 0 0 0 0 0.184314 0 0 0 0 0.309804 0 0 0 0.15 0"/><feBlend in2="BackgroundImageFix" result="effect1_dropShadow"/><feBlend in="SourceGraphic" in2="effect1_dropShadow" result="shape"/></filter></defs></svg>