<svg width="62" height="70" viewBox="0 0 62 70" fill="none" xmlns="http://www.w3.org/2000/svg"><path fill-rule="evenodd" clip-rule="evenodd" d="M34.205 8.903c6.027-1.14 12.048-3.775 16.996.26 4.947 4.036 4.16 12.41 5.776 19.039 1.52 6.233 6.998 12.837 4.276 18.53-2.78 5.81-10.713 4.252-15.829 7.483-4.2 2.652-6.468 8.709-11.22 9.598-5.033.943-9.945-1.84-14.306-4.82-4.697-3.208-9.374-7.007-11.408-12.748-2.102-5.936-1.951-12.815.27-18.695 2.121-5.614 6.915-9.022 11.46-12.352 4.312-3.16 8.909-5.333 13.985-6.295z" fill="#48639C" fill-opacity=".1"/><rect x="12" y="16" width="46" height="39" rx="2" fill="#48639C" filter="url(#a)"/><rect x="15" y="21" width="40" height="6" rx="1" fill="#fff"/><rect x="15" y="31" width="40" height="6" rx="1" fill="#fff"/><rect x="4" y="42" width="31" height="9" rx="1" fill="#FB6970" filter="url(#b)"/><path stroke="#212F4F" stroke-opacity=".2" stroke-width="3" d="M9 46.5h21"/><defs><filter id="a" x="10" y="15" width="50" height="43" filterUnits="userSpaceOnUse" color-interpolation-filters="sRGB"><feFlood flood-opacity="0" result="BackgroundImageFix"/><feColorMatrix in="SourceAlpha" values="0 0 0 0 0 0 0 0 0 0 0 0 0 0 0 0 0 0 127 0"/><feOffset dy="1"/><feGaussianBlur stdDeviation="1"/><feColorMatrix values="0 0 0 0 0.129412 0 0 0 0 0.184314 0 0 0 0 0.309804 0 0 0 0.15 0"/><feBlend in2="BackgroundImageFix" result="effect1_dropShadow"/><feBlend in="SourceGraphic" in2="effect1_dropShadow" result="shape"/></filter><filter id="b" x="2" y="41" width="35" height="13" filterUnits="userSpaceOnUse" color-interpolation-filters="sRGB"><feFlood flood-opacity="0" result="BackgroundImageFix"/><feColorMatrix in="SourceAlpha" values="0 0 0 0 0 0 0 0 0 0 0 0 0 0 0 0 0 0 127 0"/><feOffset dy="1"/><feGaussianBlur stdDeviation="1"/><feColorMatrix values="0 0 0 0 0.129412 0 0 0 0 0.184314 0 0 0 0 0.309804 0 0 0 0.15 0"/><feBlend in2="BackgroundImageFix" result="effect1_dropShadow"/><feBlend in="SourceGraphic" in2="effect1_dropShadow" result="shape"/></filter></defs></svg>