<svg width="23" height="18" viewBox="0 0 23 18" xmlns="http://www.w3.org/2000/svg"><title>icon-quote-marks-dark</title><path d="M12.162 10.988c0-1.185.182-2.333.547-3.445a9.31 9.31 0 0 1 1.736-3.09c.793-.948 1.823-1.8 3.09-2.557C18.802 1.14 20.347.516 22.17.023v2.899a25.54 25.54 0 0 0-2.133.875c-.62.292-1.135.606-1.545.943a3.56 3.56 0 0 0-.93 1.121c-.21.41-.314.889-.314 1.436 0 .364.1.656.3.875.201.219.457.428.766.629.31.2.638.405.985.615.346.21.674.474.984.793.31.319.565.725.766 1.217.2.492.3 1.112.3 1.86 0 1.257-.387 2.214-1.162 2.87-.774.657-1.736.985-2.884.985-1.586 0-2.84-.547-3.76-1.641-.92-1.094-1.38-2.598-1.38-4.512h-.001zm-11.703 0c0-1.185.182-2.333.547-3.445a9.31 9.31 0 0 1 1.736-3.09c.793-.948 1.823-1.8 3.09-2.557C7.099 1.14 8.644.516 10.467.023v2.899c-.82.292-1.536.583-2.147.875-.61.292-1.12.606-1.53.943a3.533 3.533 0 0 0-.93 1.121c-.21.41-.315.889-.315 1.436 0 .364.1.656.3.875.201.219.456.428.766.629.31.2.638.405.985.615.346.21.674.474.984.793.31.319.565.725.766 1.217.2.492.3 1.112.3 1.86 0 1.257-.387 2.214-1.162 2.87-.774.657-1.736.985-2.884.985-1.586 0-2.84-.547-3.76-1.641C.92 14.406.459 12.902.459 10.988z" fill="#0E4C79" fill-rule="evenodd"/></svg>