<svg width="62" height="70" viewBox="0 0 62 70" fill="none" xmlns="http://www.w3.org/2000/svg"><path fill-rule="evenodd" clip-rule="evenodd" d="M31.896 14.106c5.467-.839 10.77-4.442 15.98-2.578 5.75 2.059 10.3 7.08 12.536 12.785 2.308 5.89 1.998 12.618-.268 18.525-2.193 5.715-7.059 9.654-11.948 13.315-4.95 3.705-10.135 8.159-16.3 7.83-6.077-.325-10.075-6.04-15.087-9.506-5.189-3.589-12.393-5.252-14.742-11.123-2.379-5.946-.5-13.095 2.878-18.53 3.022-4.861 8.86-6.772 14.165-8.882 4.103-1.632 8.423-1.166 12.786-1.836z" fill="#48639C" fill-opacity=".1"/><rect x="10" y="14" width="47" height="34" rx="2" fill="#fff" filter="url(#a)"/><mask id="b" maskUnits="userSpaceOnUse" x="10" y="14" width="47" height="34"><rect x="10" y="14" width="47" height="34" rx="2" fill="#fff"/></mask><g mask="url(#b)"><path d="M9.5 37l7.028 3.216 9.791-5.838 7.834 1.298 4.916-4.54 7.486 1.296 5.876-6.486L57.5 23.5" stroke="#48639C" stroke-opacity=".3" stroke-width=".6"/></g><path d="M34.413 24.642c-.253-.183-.361-.512-.325-.843.037-.44.072-.878.072-1.32 0-.438-.036-.878-.072-1.318a.938.938 0 0 1 .325-.843l3.249-2.637c.36-.293.432-.77.217-1.171l-2.636-4.652c-.217-.403-.685-.549-1.083-.403l-3.862 1.538a.915.915 0 0 1-.866-.11c-.685-.512-1.48-.953-2.274-1.32a.839.839 0 0 1-.542-.695l-.615-4.098c-.035-.44-.433-.77-.865-.77h-5.272c-.433 0-.83.33-.865.77l-.614 4.174a.887.887 0 0 1-.541.696c-.794.366-1.553.805-2.275 1.319-.252.183-.578.256-.866.11l-3.862-1.538a.879.879 0 0 0-1.083.403l-2.637 4.614c-.215.403-.144.879.217 1.172l3.25 2.637c.252.183.36.512.324.843-.037.439-.072.878-.072 1.319 0 .439.036.878.072 1.319a.938.938 0 0 1-.325.842l-3.249 2.563c-.36.293-.432.77-.217 1.172l2.636 4.65a.879.879 0 0 0 1.083.404l3.862-1.538a.915.915 0 0 1 .866.11c.685.513 1.48.953 2.274 1.32.29.11.505.366.542.695l.613 4.174c.072.44.433.77.866.77h5.271c.433 0 .83-.33.866-.77l.613-4.174a.887.887 0 0 1 .542-.696 14.126 14.126 0 0 0 2.274-1.319c.253-.183.579-.256.866-.11l3.862 1.538c.398.146.866 0 1.083-.403l2.636-4.651c.217-.404.144-.879-.217-1.172l-3.246-2.601zM22.5 27.022c-2.49 0-4.476-2.051-4.476-4.54 0-2.491 1.986-4.541 4.476-4.541s4.476 2.014 4.476 4.54c0 2.527-1.986 4.541-4.476 4.541z" fill="#FB6970" filter="url(#c)"/><path d="M46.241 47.608a.484.484 0 0 1-.064-.5c.083-.228.166-.458.228-.693.063-.235.105-.475.147-.715a.502.502 0 0 1 .304-.401l2.223-.917a.486.486 0 0 0 .29-.593l-.837-2.883a.533.533 0 0 0-.558-.38l-2.415.237a.567.567 0 0 1-.477-.19 7.649 7.649 0 0 0-1.105-1.049.47.47 0 0 1-.21-.453l.234-2.283c.043-.24-.137-.476-.383-.542l-2.997-.798c-.246-.066-.519.05-.602.28l-.942 2.137a.496.496 0 0 1-.407.29 8.464 8.464 0 0 0-1.48.36.514.514 0 0 1-.509-.073l-1.977-1.406a.532.532 0 0 0-.673.051l-2.156 2.066a.486.486 0 0 0-.043.658l1.472 1.9a.484.484 0 0 1 .065.5 8.047 8.047 0 0 0-.229.694c-.062.234-.104.474-.147.715a.502.502 0 0 1-.304.4l-2.212.878a.486.486 0 0 0-.29.593l.837 2.883a.533.533 0 0 0 .558.38l2.415-.237c.18-.015.36.054.477.19a7.66 7.66 0 0 0 1.106 1.049.47.47 0 0 1 .209.453l-.245 2.323a.516.516 0 0 0 .382.542l2.997.798c.246.066.52-.05.602-.28l.943-2.137a.496.496 0 0 1 .406-.29 8.454 8.454 0 0 0 1.481-.36c.17-.059.366-.049.508.073l1.978 1.406a.532.532 0 0 0 .673-.051l2.16-2.085a.485.485 0 0 0 .043-.66l-1.476-1.88zm-7.112-.532c-1.416-.377-2.252-1.774-1.898-3.104.354-1.33 1.774-2.124 3.19-1.747s2.258 1.753 1.899 3.103c-.36 1.35-1.775 2.125-3.19 1.748z" fill="#48639C"/><defs><filter id="a" x="8" y="13" width="51" height="38" filterUnits="userSpaceOnUse" color-interpolation-filters="sRGB"><feFlood flood-opacity="0" result="BackgroundImageFix"/><feColorMatrix in="SourceAlpha" values="0 0 0 0 0 0 0 0 0 0 0 0 0 0 0 0 0 0 127 0"/><feOffset dy="1"/><feGaussianBlur stdDeviation="1"/><feColorMatrix values="0 0 0 0 0.129412 0 0 0 0 0.184314 0 0 0 0 0.309804 0 0 0 0.15 0"/><feBlend in2="BackgroundImageFix" result="effect1_dropShadow"/><feBlend in="SourceGraphic" in2="effect1_dropShadow" result="shape"/></filter><filter id="c" x="5" y="5" width="35" height="37" filterUnits="userSpaceOnUse" color-interpolation-filters="sRGB"><feFlood flood-opacity="0" result="BackgroundImageFix"/><feColorMatrix in="SourceAlpha" values="0 0 0 0 0 0 0 0 0 0 0 0 0 0 0 0 0 0 127 0"/><feOffset dy="1"/><feGaussianBlur stdDeviation="1"/><feColorMatrix values="0 0 0 0 0.129412 0 0 0 0 0.184314 0 0 0 0 0.309804 0 0 0 0.15 0"/><feBlend in2="BackgroundImageFix" result="effect1_dropShadow"/><feBlend in="SourceGraphic" in2="effect1_dropShadow" result="shape"/></filter></defs></svg>