<svg width="62" height="70" viewBox="0 0 62 70" fill="none" xmlns="http://www.w3.org/2000/svg"><path fill-rule="evenodd" clip-rule="evenodd" d="M28.973 62.423c-6.566.48-13.664 3.476-19.256-.316C4.043 58.259 1.957 50.35.62 43.197-.603 36.642-.046 29.79 2.548 23.733c2.392-5.585 7-9.388 11.809-12.61 4.47-2.995 9.382-5.408 14.616-5.096 5.069.302 9.106 3.998 13.503 6.772 5.027 3.172 11.388 4.879 13.972 10.561 2.7 5.937 1.412 13.056-.348 19.401-1.789 6.45-4.518 12.936-9.655 16.659-5.037 3.651-11.442 2.562-17.472 3.003z" fill="#48639C" fill-opacity=".1"/><g filter="url(#a)"><path d="M8 16h44v39a1 1 0 0 1-1 1H9a1 1 0 0 1-1-1V16z" fill="#fff"/><path d="M8 13a2 2 0 0 1 2-2h40a2 2 0 0 1 2 2v3H8v-3z" fill="#212F4F"/></g><path fill="#DCE1E5" d="M13 23h17v3H13zm0 6h17v3H13z"/><rect x="13" y="35" width="11" height="4" rx="1" fill="#48639C"/><rect x="35" y="25" width="25" height="21" rx="2" fill="#FB6970" filter="url(#b)"/><path d="M53.267 31.408h-9.534a.433.433 0 0 0-.433.433v7.318l.002.016c0 .015.002.03.004.045l.007.04c.003.014.008.027.012.04l.015.04.02.036a.513.513 0 0 0 .022.036l.026.03a.38.38 0 0 0 .032.034l.01.01c.007.007.015.012.023.017a.324.324 0 0 0 .071.044l.03.015.05.015c.01.003.018.006.028.007a.44.44 0 0 0 .082.008h9.532c.24 0 .434-.194.434-.433v-7.318a.433.433 0 0 0-.433-.433zm-.434.866v3.733l-1.924-1.924a.434.434 0 0 0-.613 0L47.17 37.21l-.833-.961a.433.433 0 0 0-.655 0l-1.515 1.748v-5.723h8.666zm-5.497 6.452h-2.654l1.327-1.531 1.327 1.531zm1.147 0l-.744-.858 2.864-2.865 2.23 2.23v1.493h-4.35z" fill="#fff"/><path d="M46.807 35.514c.713 0 1.293-.58 1.293-1.293s-.58-1.293-1.293-1.293a1.294 1.294 0 0 0 0 2.586zm0-1.719a.426.426 0 1 1 0 .853.426.426 0 0 1 0-.853z" fill="#fff"/><defs><filter id="a" x="6" y="10" width="48" height="49" filterUnits="userSpaceOnUse" color-interpolation-filters="sRGB"><feFlood flood-opacity="0" result="BackgroundImageFix"/><feColorMatrix in="SourceAlpha" values="0 0 0 0 0 0 0 0 0 0 0 0 0 0 0 0 0 0 127 0"/><feOffset dy="1"/><feGaussianBlur stdDeviation="1"/><feColorMatrix values="0 0 0 0 0.129412 0 0 0 0 0.184314 0 0 0 0 0.309804 0 0 0 0.15 0"/><feBlend in2="BackgroundImageFix" result="effect1_dropShadow"/><feBlend in="SourceGraphic" in2="effect1_dropShadow" result="shape"/></filter><filter id="b" x="33" y="24" width="29" height="25" filterUnits="userSpaceOnUse" color-interpolation-filters="sRGB"><feFlood flood-opacity="0" result="BackgroundImageFix"/><feColorMatrix in="SourceAlpha" values="0 0 0 0 0 0 0 0 0 0 0 0 0 0 0 0 0 0 127 0"/><feOffset dy="1"/><feGaussianBlur stdDeviation="1"/><feColorMatrix values="0 0 0 0 0.129412 0 0 0 0 0.184314 0 0 0 0 0.309804 0 0 0 0.15 0"/><feBlend in2="BackgroundImageFix" result="effect1_dropShadow"/><feBlend in="SourceGraphic" in2="effect1_dropShadow" result="shape"/></filter></defs></svg>