<svg width="158" height="32" viewBox="0 0 158 32" fill="none" xmlns="http://www.w3.org/2000/svg"><path d="M39.34 21.134c-.153.206-.271.447-.461.611-.696.614-1.368 1.272-2.14 1.779a4.62 4.62 0 0 1-1.855.704c-1.368.182-2.456-.775-2.463-2.15a5.027 5.027 0 0 1 .386-1.945 17.076 17.076 0 0 1 5.155-6.756c.535-.423 1.184-.75 1.831-.979 1.265-.448 2.413-.136 3.342.818.973.998 1.238 2.224 1.036 3.57-.01.065-.084.117-.156.216-.538-.185-.155-.775-.553-1.09-.423.68-.924 1.325-1.25 2.044-.721 1.593-1.377 3.215-2.018 4.842-.165.42-.22.905-.22 1.359 0 .772.42 1.031 1.116.71.42-.195.823-.442 1.184-.726 1.216-.963 2.407-1.954 3.607-2.933.22-.18.432-.368.659-.54 1.703-1.3 3.351-2.66 4.831-4.225.666-.704 1.499-1.263 2.304-1.819.417-.287.92-.472 1.412-.614 1-.284 1.61.01 2.11.932.047.084.088.17.184.355.118-.296.208-.497.28-.704 1.48-4.446 3.771-8.454 6.669-12.129.38-.482.84-.908 1.296-1.321.274-.248.635-.396.998-.17.34.21.33.574.277.904-.071.43-.146.871-.314 1.27-.945 2.226-1.86 4.468-2.9 6.65a76.183 76.183 0 0 1-3.128 5.939c-.7 1.189-1.633 2.248-2.49 3.341-.265.337-.442.67-.498 1.1-.174 1.361-.277 2.72.124 4.057.146.488.351.973.616 1.408.578.951 1.355 1.213 2.394.787.519-.213.995-.543 1.455-.867.768-.544 1.243-1.418 2.145-1.831.305-.14.513-.488.783-.757-.904-1.566-.593-3.072.14-4.53 1.141-2.27 2.761-4.16 4.804-5.679.389-.29.83-.54 1.287-.694.734-.247 1.318.163 1.328.935.006.451-.044.951-.237 1.35-.534 1.108-1.05 2.25-1.769 3.242-1.1 1.522-2.356 2.93-3.553 4.385-.162.197-.345.377-.554.602.376.37.818.51 1.272.543.513.038 1.044.06 1.548-.03 2.248-.402 4.331-1.214 6.175-2.573.594-.435 1.094-.917 1.197-1.717.046-.37.245-.731.426-1.071 1.082-2.032 2.649-3.613 4.663-4.73 1.31-.726 2.659-.825 3.986-.004 1.051.652 1.44 1.754 1.03 2.872-.041.108-.122.198-.265.42-.062-.281-.112-.414-.118-.55-.087-1.584-1.412-2.63-2.979-2.288a4.801 4.801 0 0 0-1.495.618c-1.738 1.105-3.103 2.556-3.961 4.44-.348.766-.507 1.563-.283 2.402.336 1.248 1.44 2.143 2.736 2.091.662-.028 1.337-.18 1.971-.38a14.443 14.443 0 0 0 4.508-2.38c1.897-1.477 3.744-3.008 5.584-4.555a8.892 8.892 0 0 0 2.12-2.576c-.705-.886-.656-1.85-.304-2.85.42-1.207 1.07-2.235 2.248-2.834.808-.411 1.427-.028 1.234.843-.24 1.096-.668 2.152-1.038 3.22-.11.312-.283.602-.495 1.044.37-.052.638-.056.886-.13 2.301-.682 4.53-1.5 6.212-3.322.069-.074.149-.142.23-.207.265-.21.551-.306.849-.074.286.225.311.537.165.837-.156.324-.348.63-.544.932-.911 1.417-1.682 2.9-2.121 4.53a14.31 14.31 0 0 0-.345 1.739c-.133.982.078 1.89.672 2.704.162.223.289.467.423.686-.339.488-.613.262-.874.037-1.147-.988-1.564-2.263-1.477-3.733.078-1.297.439-2.532.911-3.737.093-.234.187-.469.32-.809-2.024.742-3.796 2.005-6.016 1.723-1.961 2.69-4.617 4.639-7.163 6.701-1.673 1.356-3.5 2.48-5.546 3.212-.557.2-1.138.367-1.723.447-2.061.288-3.74-.747-4.437-2.686-.05-.139-.1-.278-.167-.47-.131.08-.221.121-.29.183-1.794 1.565-3.917 2.485-6.2 3.07-1.554.398-3.083.425-4.464-.659-.926.834-1.815 1.652-2.726 2.446-.448.386-.908.778-1.418 1.069-1.657.938-3.215.515-4.188-1.112-.693-1.158-.954-2.434-.967-3.767-.003-.297 0-.596 0-1.044-.267.247-.41.38-.553.515-.768.726-1.502 1.498-2.32 2.168a8.543 8.543 0 0 1-1.968 1.214 4.193 4.193 0 0 1-1.732.324c-1.526-.03-2.555-1.186-2.434-2.696.044-.553.24-1.093.382-1.704-.146.108-.28.191-.4.3-1.238 1.096-2.45 2.22-3.713 3.288-.587.497-1.219.979-1.9 1.322-1.56.787-2.925-.108-2.826-1.853.04-.683.283-1.353.448-2.026.06-.24.146-.472.224-.707-.05-.028-.106-.074-.165-.117zm3.612-6.525c-1.039-1.334-2.083-1.553-3.507-.732a5.87 5.87 0 0 0-.827.571c-1.943 1.634-3.473 3.585-4.552 5.877-.205.435-.36.917-.423 1.392-.13 1.02.55 1.606 1.527 1.27a4.938 4.938 0 0 0 1.663-.949c1.225-1.099 2.388-2.27 3.55-3.436.343-.343.638-.745.896-1.158.57-.914 1.098-1.853 1.673-2.835zm7.176 9.6c.805-.052 1.563-.395 2.204-.926 1.07-.886 2.07-1.856 3.128-2.76.718-.615 1.153-1.329 1.25-2.289.065-.636.198-1.238-.01-1.887-.47-1.448-.867-1.642-2.142-.8-.684.451-1.3 1.01-1.906 1.563-1.34 1.223-2.528 2.579-3.417 4.163-.236.42-.435.883-.535 1.352-.202.948.392 1.597 1.428 1.584zm8.074-6.784C60.089 15.49 65.76 4.258 65.996 2.06c-2.288 1.766-7.312 11.622-7.794 15.365zm13.493-4.647c-.432.275-.824.472-1.15.74-1.775 1.464-3.209 3.212-4.216 5.275-.29.59-.441 1.257-.578 1.905-.087.41-.047.859.276 1.254.125-.108.234-.18.311-.275 1.319-1.652 2.68-3.267 3.924-4.971.585-.8.954-1.757 1.377-2.665.153-.33.299-.714.056-1.263zm23.72-1.146c.575-.954 1.053-1.945 1.398-3.15-.994.794-1.526 1.992-1.399 3.15zm49.291-1.88c-1.204-.281-2.348.154-3.392-.278.108-.535.413-.553.693-.568.982-.053 1.968-.158 2.947-.112.865.04 1.424-.315 1.878-.966.575-.825 1.147-1.652 1.738-2.464.83-1.146 1.629-2.322 2.537-3.41.554-.663 1.259-1.213 1.943-1.756.42-.334.547-.257.914.336-.146.17-.292.374-.472.544-1.113 1.05-2.071 2.208-2.851 3.538-.594 1.016-1.381 1.921-2.083 2.872-.286.386-.585.763-.939 1.226.214.046.301.08.391.083 2.537.09 5.074.176 7.608.26.311.01.622-.046.93-.025.224.016.438.114.659.176.006.071.009.145.016.216-.209.105-.411.275-.628.3-.666.077-1.34.142-2.009.13-2.254-.044-4.505-.124-6.756-.189-.255-.006-.51 0-.799 0-1.632 2.758-3.305 5.45-3.871 8.64-.021.127-.043.253-.059.38-.211 1.967.516 3.153 2.394 3.807 2.04.707 4.126.658 6.212.257 2.08-.402 3.952-1.217 5.435-2.78.087-.092.196-.166.298-.244.041-.03.094-.04.171-.067.373.086.485.327.308.673a3.53 3.53 0 0 1-.435.636c-.743.917-1.642 1.652-2.733 2.115-2.87 1.217-5.836 1.532-8.895.837a7.282 7.282 0 0 1-.672-.195c-2.614-.883-3.734-2.723-3.32-5.434.224-1.464.712-2.841 1.34-4.175.373-.79.774-1.569 1.203-2.43-.131.046-.221.055-.283.105-2.388 1.877-5.176 2.67-8.152 2.84-1.704.1-3.414.016-5.124.016h-.603c.177.284.302.485.429.685 3.007 4.759 2.055 10.768-2.297 14.254a8 8 0 0 1-1.996 1.161c-1.3.525-2.335.059-2.938-1.207-.374-.784-.47-1.624-.489-2.48-.04-2.23.548-4.326 1.384-6.364.805-1.964 1.872-3.782 3.103-5.509.134-.188.261-.383.388-.574.013-.015 0-.046 0-.123-.279-.214-.494-.02-.708.157-1.014.84-2.015 1.698-3.044 2.52a232.584 232.584 0 0 1-5.062 3.958c-.466.352-1.023.615-1.579.81-1.253.438-2.083-.118-2.226-1.43-.031-.281-.038-.565-.062-.936-.175.108-.321.176-.439.278-.793.66-1.554 1.359-2.372 1.989a5.455 5.455 0 0 1-2.466 1.077c-2.204.362-3.932-1.26-3.597-3.449a7.412 7.412 0 0 1 .656-2.044c1.176-2.443 2.954-4.4 5.161-5.963a5.823 5.823 0 0 1 1.816-.837c1.595-.435 2.708.269 3.05 1.865.109.516.14 1.047.218 1.643.27-.238.472-.482.73-.617.202-.108.548-.186.703-.084.193.127.354.454.345.689-.009.318-.14.664-.317.935a47.768 47.768 0 0 1-1.766 2.53c-.594.793-.793 2.572-.317 3.458.423.164.808-.046 1.15-.247.976-.578 1.984-1.13 2.879-1.819 1.844-1.417 3.622-2.915 5.426-4.385.093-.074.161-.176.255-.275-.778-.407-1.816-.067-2.429-1.068.327-.136.569-.315.812-.321a30.928 30.928 0 0 1 3.165.065c.05-.016.109-.019.146-.05 2.005-1.781 4.166-3.39 5.991-5.376 1.642-1.788 3.33-3.535 5.366-4.897.644-.43 1.316-.818 1.996-1.189a2.27 2.27 0 0 1 .883-.26c.569-.046.874.402.632.912-.119.25-.302.487-.507.673-.442.395-.899.775-1.381 1.124-2.067 1.504-4.153 2.986-6.218 4.496a7.74 7.74 0 0 0-1.197 1.093c-.995 1.118-1.962 2.26-2.932 3.397-.143.166-.258.358-.485.673.731 0 1.315-.006 1.903 0 2.31.021 4.608-.077 6.865-.646 2.179-.543 4.048-1.64 5.833-3.186zm-15.605 5.07c-2.039 2.751-3.653 5.546-4.592 8.69-.429 1.438-.721 2.902-.597 4.406.047.553.187 1.12.407 1.627.277.642.793.899 1.455.716.56-.154 1.138-.386 1.605-.725 1.601-1.17 2.795-2.68 3.398-4.58 1.029-3.251.519-6.345-1.079-9.303-.146-.263-.351-.491-.597-.831zm-12.878.232c-.13-.782-.214-1.578-.41-2.344-.199-.79-.662-1.056-1.461-.837-.513.142-1.036.364-1.465.673-2.101 1.523-3.793 3.403-4.893 5.762a5.44 5.44 0 0 0-.454 1.541c-.143 1.035.516 1.828 1.564 1.89.425.025.895-.031 1.284-.192.565-.234 1.128-.534 1.604-.917.982-.79 1.903-1.658 2.851-2.488.939-.816 1.309-1.866 1.38-3.088zM20.93 16.369c-.354-.117-.535-.154-.693-.232-.494-.244-.687-.697-.497-1.226.102-.287.258-.561.438-.809.64-.889 1.455-1.602 2.366-2.207a2.39 2.39 0 0 1 .27-.152c.358-.166.731-.34 1.085-.021.361.324.221.71.047 1.065-.283.574-.594 1.133-.948 1.806.289-.077.479-.11.656-.179 1.551-.586 3.08-1.232 4.446-2.18.802-.556 1.517-1.235 2.266-1.862.137-.114.237-.315.389-.367.22-.074.538-.142.7-.037.161.105.289.454.239.645-.093.364-.302.704-.5 1.035-1.518 2.553-2.889 5.175-3.694 8.05-.18.642-.352 1.303-.383 1.96-.03.683.087 1.378.19 2.06.05.328.143.642-.246.775-.391.136-.6-.179-.684-.466-.208-.71-.485-1.436-.488-2.158-.006-.94.165-1.893.37-2.817.439-1.967 1.188-3.825 2.232-5.71-.23.084-.357.112-.466.174a27.047 27.047 0 0 1-5.385 2.368c-.395.124-.646.346-.892.673-1.05 1.402-2.061 2.844-3.233 4.141-2.63 2.915-5.463 5.633-8.56 8.066a35.15 35.15 0 0 1-3.373 2.334 6.946 6.946 0 0 1-2.074.831c-1.37.312-2.322-.374-2.608-1.738-.193-.927-.078-1.847.09-2.761.444-2.415 1.197-4.74 2.167-6.991.98-2.267 2.049-4.496 3.08-6.741.104-.226.212-.448.396-.828-2.665.936-5.19 1.807-7.633 3.147.019-.17-.025-.374.056-.45.317-.297.644-.6 1.017-.816 1.974-1.146 4.079-2.02 6.243-2.733.715-.235 1.16-.62 1.514-1.281.948-1.77 1.974-3.499 2.975-5.24.128-.223.252-.476.451-.618.18-.13.51-.238.675-.155.174.084.323.402.323.621.003.266-.13.547-.255.797-.687 1.383-1.393 2.757-2.09 4.135-.09.179-.167.36-.28.608 2.905-.701 5.725-1.433 8.573-2.054 2.807-.611 5.643-1.105 8.462-1.652.032.05.063.096.09.146-.127.12-.236.299-.391.352-.68.234-1.365.5-2.07.633-4.916.926-9.744 2.192-14.545 3.57-.569.163-.92.444-1.184.975-1.962 3.915-3.896 7.843-5.242 12.021-.386 1.198-.663 2.43-.936 3.66-.1.44-.09.926-.044 1.38.066.633.395.873 1.017.722.522-.126 1.06-.293 1.52-.562 1.001-.587 2-1.192 2.929-1.887 3.473-2.59 6.638-5.511 9.56-8.692.883-.963 1.66-2.023 2.562-3.128zm1.959-3.31c-1.129.645-1.778 1.405-1.971 2.205.367-.18.74-.244.905-.46.404-.544.715-1.159 1.066-1.745z" fill="#212F4F"/></svg>