<svg width="133" height="130" viewBox="0 0 133 130" fill="none" xmlns="http://www.w3.org/2000/svg">
<g clip-path="url(#clip0)">
<path d="M74.8867 129.42C74.8867 129.42 67.7677 120.752 51.145 117.933C34.9655 114.157 15.3905 98.3718 10.3726 76.2047C4.55685 54.2503 14.3443 31.2944 26.8624 20.5609C39.2918 9.29567 50.9411 7.5496 50.7106 7.39893C50.9943 7.73573 39.4425 9.7477 27.3234 21.0573C15.1068 31.8528 5.80688 54.5074 11.7024 75.8768C16.8267 97.4589 35.985 112.571 51.6414 116.081C55.3915 116.657 58.7338 117.552 61.6594 118.598C72.7058 122.515 76.9524 127.568 76.9524 127.568L74.8867 129.42Z" fill="#EFC43A"/>
<path d="M57.475 129.42C57.475 129.42 64.5939 120.752 81.2167 117.933C97.3962 114.157 116.962 98.3718 121.989 76.2047C127.805 54.2503 118.017 31.2944 105.499 20.5609C93.0699 9.29567 81.4206 7.5496 81.66 7.39893C81.3763 7.73573 92.928 9.7477 105.038 21.0573C117.255 31.8528 126.555 54.5074 120.659 75.8768C115.535 97.4589 96.3678 112.571 80.7203 116.081C76.9702 116.657 73.6279 117.552 70.7023 118.598C59.6559 122.515 55.4093 127.568 55.4093 127.568L57.475 129.42Z" fill="#EFC43A"/>
<path d="M46.3576 104.222C46.3576 104.222 50.8878 105.782 52.3861 109.389C54.2656 113.9 53.45 117.685 53.45 117.685C53.45 117.685 48.9108 115.327 47.3948 112.881C45.2583 109.442 46.3576 104.222 46.3576 104.222Z" fill="#EFC43A"/>
<path d="M38.4053 124.058C38.4053 124.058 42.9887 125.467 46.331 123.428C50.5067 120.885 52.0759 117.348 52.0759 117.348C52.0759 117.348 47.0137 116.586 44.3451 117.667C40.595 119.192 38.4053 124.058 38.4053 124.058Z" fill="#EFC43A"/>
<path d="M39.3007 100.331C39.3007 100.331 43.4054 102.608 44.2387 106.349C45.2849 111.029 43.8575 114.538 43.8575 114.538C43.8575 114.538 39.8769 111.489 38.8308 108.866C37.3591 105.179 39.3007 100.331 39.3007 100.331Z" fill="#EFC43A"/>
<path d="M28.2543 118.119C28.2543 118.119 32.4388 120.255 36.0116 118.855C40.4709 117.109 42.5898 113.962 42.5898 113.962C42.5898 113.962 37.8379 112.367 35.0718 112.961C31.1887 113.794 28.2543 118.119 28.2543 118.119Z" fill="#EFC43A"/>
<path d="M32.9707 95.2786C32.9707 95.2786 36.5435 98.1769 36.712 101.926C36.9247 106.615 34.9477 109.761 34.9477 109.761C34.9477 109.761 31.6232 106.145 31.0646 103.433C30.2667 99.6304 32.9707 95.2786 32.9707 95.2786Z" fill="#EFC43A"/>
<path d="M19.2825 110.568C19.2825 110.568 22.9528 113.342 26.6408 112.597C31.242 111.667 33.8219 108.999 33.8219 108.999C33.8219 108.999 29.5044 106.65 26.7383 106.748C22.8553 106.898 19.2825 110.568 19.2825 110.568Z" fill="#EFC43A"/>
<path d="M27.5982 89.1541C27.5982 89.1541 30.5593 92.5576 30.0805 96.2092C29.4865 100.774 27.0485 103.468 27.0485 103.468C27.0485 103.468 24.4598 99.4089 24.3712 96.6967C24.247 92.8944 27.5982 89.1541 27.5982 89.1541Z" fill="#EFC43A"/>
<path d="M11.7822 101.58C11.7822 101.58 14.8585 104.877 18.5377 104.789C23.1389 104.674 26.0823 102.538 26.0823 102.538C26.0823 102.538 22.3144 99.5329 19.6282 99.1607C15.8515 98.6377 11.7822 101.58 11.7822 101.58Z" fill="#EFC43A"/>
<path d="M23.334 82.2053C23.334 82.2053 25.6124 85.99 24.5308 89.4378C23.1833 93.7365 20.364 95.9346 20.364 95.9346C20.364 95.9346 18.5555 91.5827 18.9367 88.9503C19.4598 85.2454 23.334 82.2053 23.334 82.2053Z" fill="#EFC43A"/>
<path d="M5.95764 91.512C5.95764 91.512 8.36019 95.2168 11.933 95.7575C16.3923 96.4311 19.5928 94.8623 19.5928 94.8623C19.5928 94.8623 16.4721 91.3258 13.9366 90.5104C10.3815 89.367 5.95764 91.512 5.95764 91.512Z" fill="#EFC43A"/>
<path d="M20.3906 74.6626C20.3906 74.6626 21.9421 78.7043 20.3108 81.8419C18.2806 85.7683 15.1866 87.3992 15.1866 87.3992C15.1866 87.3992 14.1848 82.8877 14.9915 80.4149C16.1352 76.9405 20.3906 74.6626 20.3906 74.6626Z" fill="#EFC43A"/>
<path d="M2.03906 80.6809C2.03906 80.6809 3.7235 84.6693 7.07466 85.795C11.2592 87.2043 14.6192 86.2382 14.6192 86.2382C14.6192 86.2382 12.2078 82.294 9.90275 81.0708C6.67571 79.3691 2.03906 80.6809 2.03906 80.6809Z" fill="#EFC43A"/>
<path d="M18.7682 66.7476C18.7682 66.7476 19.575 70.9133 17.4739 73.6609C14.8408 77.0999 11.5783 78.1546 11.5783 78.1546C11.5783 78.1546 11.3744 73.6255 12.589 71.3742C14.2734 68.2189 18.7682 66.7476 18.7682 66.7476Z" fill="#EFC43A"/>
<path d="M0.0355225 69.4332C0.0355225 69.4332 0.984129 73.5724 4.02499 75.2298C7.82828 77.3038 11.2326 76.9404 11.2326 76.9404C11.2326 76.9404 9.57478 72.7215 7.56232 71.1527C4.73423 68.9546 0.0355225 69.4332 0.0355225 69.4332Z" fill="#EFC43A"/>
<path d="M18.5466 58.6289C18.5466 58.6289 18.6175 62.7858 16.1174 65.0814C12.9879 67.9531 9.67224 68.414 9.67224 68.414C9.67224 68.414 10.2485 64.0178 11.8 62.0413C13.9543 59.2848 18.5466 58.6289 18.5466 58.6289Z" fill="#EFC43A"/>
<path d="M0 58.0349C0 58.0349 0.212772 62.1918 2.87242 64.3101C6.18811 66.9603 9.53926 67.1907 9.53926 67.1907C9.53926 67.1907 8.66158 62.8388 6.986 60.9864C4.61892 58.3717 0 58.0349 0 58.0349Z" fill="#EFC43A"/>
<path d="M19.7079 50.3328C19.7079 50.3328 19.0696 54.3568 16.2681 56.1472C12.7663 58.3896 9.47717 58.2655 9.47717 58.2655C9.47717 58.2655 10.7804 54.1175 12.6156 52.4778C15.1688 50.1822 19.7079 50.3328 19.7079 50.3328Z" fill="#EFC43A"/>
<path d="M1.91495 46.6013C1.91495 46.6013 1.40962 50.643 3.61712 53.1424C6.36542 56.2623 9.557 57.06 9.557 57.06C9.557 57.06 9.45061 52.7081 8.14739 50.6341C6.31223 47.7181 1.91495 46.6013 1.91495 46.6013Z" fill="#EFC43A"/>
<path d="M22.3055 42.2406C22.3055 42.2406 21.0111 46.0164 17.9969 47.2661C14.229 48.8349 11.0818 48.1525 11.0818 48.1525C11.0818 48.1525 13.0499 44.3678 15.089 43.1004C17.9525 41.3277 22.3055 42.2406 22.3055 42.2406Z" fill="#EFC43A"/>
<path d="M5.77139 35.6108C5.77139 35.6108 4.60115 39.4309 6.30332 42.214C8.43104 45.6884 11.3744 47.0002 11.3744 47.0002C11.3744 47.0002 12.0127 42.7812 11.1084 40.5566C9.83178 37.4367 5.77139 35.6108 5.77139 35.6108Z" fill="#EFC43A"/>
<path d="M26.3216 34.7333C26.3216 34.7333 24.4244 38.1546 21.3037 38.8548C17.4029 39.7234 14.4773 38.5357 14.4773 38.5357C14.4773 38.5357 17.0217 35.2208 19.2026 34.3433C22.2701 33.1113 26.3216 34.7333 26.3216 34.7333Z" fill="#EFC43A"/>
<path d="M11.4896 25.5244C11.4896 25.5244 9.70765 29.0077 10.8779 31.9858C12.3318 35.7083 14.956 37.4721 14.956 37.4721C14.956 37.4721 16.2858 33.5102 15.7894 31.2058C15.0979 27.9707 11.4896 25.5244 11.4896 25.5244Z" fill="#EFC43A"/>
<path d="M31.6232 28.0504C31.6232 28.0504 29.2118 31.0285 26.0734 31.1703C22.1637 31.3475 19.5396 29.699 19.5396 29.699C19.5396 29.699 22.5627 26.9336 24.8145 26.455C27.9884 25.7991 31.6232 28.0504 31.6232 28.0504Z" fill="#EFC43A"/>
<path d="M18.8746 16.6433C18.8746 16.6433 16.5607 19.7011 17.1813 22.7767C17.9526 26.6145 20.1867 28.7594 20.1867 28.7594C20.1867 28.7594 22.146 25.1609 22.0573 22.8565C21.9332 19.6214 18.8746 16.6433 18.8746 16.6433Z" fill="#EFC43A"/>
<path d="M37.9532 22.4489C37.9532 22.4489 35.1162 24.9129 32.0665 24.514C28.2632 24.0177 26.0114 21.988 26.0114 21.988C26.0114 21.988 29.398 19.8342 31.6587 19.7544C34.8236 19.657 37.9532 22.4489 37.9532 22.4489Z" fill="#EFC43A"/>
<path d="M27.5894 9.26904C27.5894 9.26904 24.8322 11.8305 24.912 14.8972C25.0006 18.735 26.7915 21.1813 26.7915 21.1813C26.7915 21.1813 29.3004 18.0437 29.6107 15.8013C30.0362 12.6637 27.5894 9.26904 27.5894 9.26904Z" fill="#EFC43A"/>
<path d="M45.1165 18.0614C45.1165 18.0614 41.9604 19.9581 39.088 19.054C35.4974 17.9284 33.6711 15.5885 33.6711 15.5885C33.6711 15.5885 37.306 14.0817 39.5046 14.4008C42.5721 14.844 45.1165 18.0614 45.1165 18.0614Z" fill="#EFC43A"/>
<path d="M37.3592 3.57886C37.3592 3.57886 34.2651 5.58196 33.813 8.56003C33.2456 12.2738 34.5577 14.9505 34.5577 14.9505C34.5577 14.9505 37.5099 12.3447 38.1837 10.2352C39.1411 7.27485 37.3592 3.57886 37.3592 3.57886Z" fill="#EFC43A"/>
<path d="M52.8028 15.0213C52.8028 15.0213 49.4339 16.3153 46.8097 14.9593C43.5384 13.2664 42.1731 10.6872 42.1731 10.6872C42.1731 10.6872 45.9321 9.854 48.0066 10.5276C50.9056 11.476 52.8028 15.0213 52.8028 15.0213Z" fill="#EFC43A"/>
<path d="M47.785 -0.276611C47.785 -0.276611 44.4604 1.13265 43.5207 3.92459C42.3416 7.41673 43.1483 10.2175 43.1483 10.2175C43.1483 10.2175 46.4463 8.20557 47.457 6.29109C48.8754 3.59665 47.785 -0.276611 47.785 -0.276611Z" fill="#EFC43A"/>
<path d="M47.9268 8.33856C47.9268 8.33856 50.418 9.74783 52.6255 8.98558C55.3826 8.03721 56.7479 6.17592 56.7479 6.17592C56.7479 6.17592 53.9021 5.08573 52.1999 5.36936C49.8328 5.78593 47.9268 8.33856 47.9268 8.33856Z" fill="#EFC43A"/>
<path d="M86.0041 104.222C86.0041 104.222 81.4738 105.782 79.9755 109.389C78.0961 113.9 78.9117 117.685 78.9117 117.685C78.9117 117.685 83.4508 115.327 84.9668 112.881C87.1034 109.442 86.0041 104.222 86.0041 104.222Z" fill="#EFC43A"/>
<path d="M93.9565 124.058C93.9565 124.058 89.373 125.467 86.0307 123.428C81.8639 120.885 80.2859 117.348 80.2859 117.348C80.2859 117.348 85.3481 116.586 88.0166 117.667C91.7667 119.192 93.9565 124.058 93.9565 124.058Z" fill="#EFC43A"/>
<path d="M93.061 100.331C93.061 100.331 88.9474 102.608 88.114 106.349C87.0679 111.029 88.4953 114.538 88.4953 114.538C88.4953 114.538 92.4759 111.489 93.522 108.866C95.0025 105.179 93.061 100.331 93.061 100.331Z" fill="#EFC43A"/>
<path d="M104.107 118.119C104.107 118.119 99.9228 120.255 96.35 118.855C91.8907 117.109 89.7719 113.962 89.7719 113.962C89.7719 113.962 94.5237 112.367 97.2898 112.961C101.164 113.794 104.107 118.119 104.107 118.119Z" fill="#EFC43A"/>
<path d="M99.3909 95.2786C99.3909 95.2786 95.8181 98.1769 95.6497 101.926C95.4369 106.615 97.4139 109.761 97.4139 109.761C97.4139 109.761 100.738 106.145 101.306 103.433C102.095 99.6304 99.3909 95.2786 99.3909 95.2786Z" fill="#EFC43A"/>
<path d="M113.079 110.568C113.079 110.568 109.409 113.342 105.721 112.597C101.12 111.667 98.5398 108.999 98.5398 108.999C98.5398 108.999 102.857 106.65 105.623 106.748C109.506 106.898 113.079 110.568 113.079 110.568Z" fill="#EFC43A"/>
<path d="M104.763 89.1541C104.763 89.1541 101.802 92.5576 102.281 96.2092C102.875 100.774 105.313 103.468 105.313 103.468C105.313 103.468 107.902 99.4089 107.99 96.6967C108.115 92.8944 104.763 89.1541 104.763 89.1541Z" fill="#EFC43A"/>
<path d="M120.579 101.58C120.579 101.58 117.503 104.877 113.824 104.789C109.223 104.674 106.279 102.538 106.279 102.538C106.279 102.538 110.047 99.5329 112.733 99.1607C116.501 98.6377 120.579 101.58 120.579 101.58Z" fill="#EFC43A"/>
<path d="M109.028 82.2051C109.028 82.2051 106.749 85.9897 107.831 89.4375C109.178 93.7362 111.998 95.9343 111.998 95.9343C111.998 95.9343 113.806 91.5825 113.425 88.9501C112.902 85.2452 109.028 82.2051 109.028 82.2051Z" fill="#EFC43A"/>
<path d="M126.404 91.5117C126.404 91.5117 124.001 95.2166 120.429 95.7572C115.969 96.4308 112.769 94.862 112.769 94.862C112.769 94.862 115.89 91.3256 118.425 90.5102C121.98 89.3668 126.404 91.5117 126.404 91.5117Z" fill="#EFC43A"/>
<path d="M111.971 74.6626C111.971 74.6626 110.42 78.7043 112.051 81.8419C114.081 85.7683 117.175 87.3992 117.175 87.3992C117.175 87.3992 118.177 82.8877 117.37 80.4149C116.226 76.9405 111.971 74.6626 111.971 74.6626Z" fill="#EFC43A"/>
<path d="M130.323 80.6809C130.323 80.6809 128.638 84.6693 125.278 85.795C121.085 87.2043 117.734 86.2382 117.734 86.2382C117.734 86.2382 120.145 82.294 122.441 81.0708C125.686 79.3691 130.323 80.6809 130.323 80.6809Z" fill="#EFC43A"/>
<path d="M113.593 66.7476C113.593 66.7476 112.787 70.9133 114.888 73.6609C117.521 77.0999 120.783 78.1546 120.783 78.1546C120.783 78.1546 120.987 73.6255 119.781 71.3742C118.088 68.2189 113.593 66.7476 113.593 66.7476Z" fill="#EFC43A"/>
<path d="M132.335 69.4332C132.335 69.4332 131.386 73.5724 128.337 75.2298C124.533 77.3038 121.129 76.9404 121.129 76.9404C121.129 76.9404 122.787 72.7215 124.799 71.1527C127.627 68.9546 132.335 69.4332 132.335 69.4332Z" fill="#EFC43A"/>
<path d="M113.815 58.6289C113.815 58.6289 113.744 62.7858 116.244 65.0814C119.365 67.9531 122.689 68.414 122.689 68.414C122.689 68.414 122.113 64.0178 120.562 62.0413C118.398 59.2848 113.815 58.6289 113.815 58.6289Z" fill="#EFC43A"/>
<path d="M132.362 58.0349C132.362 58.0349 132.149 62.1918 129.498 64.3101C126.182 66.9603 122.831 67.1907 122.831 67.1907C122.831 67.1907 123.709 62.8388 125.384 60.9864C127.743 58.3717 132.362 58.0349 132.362 58.0349Z" fill="#EFC43A"/>
<path d="M112.654 50.3328C112.654 50.3328 113.292 54.3568 116.093 56.1472C119.595 58.3896 122.884 58.2655 122.884 58.2655C122.884 58.2655 121.581 54.1175 119.746 52.4778C117.193 50.1822 112.654 50.3328 112.654 50.3328Z" fill="#EFC43A"/>
<path d="M130.447 46.6013C130.447 46.6013 130.952 50.643 128.745 53.1424C125.996 56.2623 122.805 57.06 122.805 57.06C122.805 57.06 122.911 52.7081 124.214 50.6341C126.049 47.7181 130.447 46.6013 130.447 46.6013Z" fill="#EFC43A"/>
<path d="M110.056 42.2406C110.056 42.2406 111.359 46.0164 114.374 47.2661C118.141 48.8349 121.289 48.1525 121.289 48.1525C121.289 48.1525 119.321 44.3678 117.282 43.1004C114.409 41.3277 110.056 42.2406 110.056 42.2406Z" fill="#EFC43A"/>
<path d="M126.59 35.6108C126.59 35.6108 127.761 39.4309 126.058 42.214C123.931 45.6884 120.987 47.0002 120.987 47.0002C120.987 47.0002 120.349 42.7812 121.253 40.5566C122.53 37.4367 126.59 35.6108 126.59 35.6108Z" fill="#EFC43A"/>
<path d="M106.04 34.7333C106.04 34.7333 107.937 38.1546 111.058 38.8548C114.959 39.7234 117.884 38.5357 117.884 38.5357C117.884 38.5357 115.34 35.2208 113.159 34.3433C110.083 33.1113 106.04 34.7333 106.04 34.7333Z" fill="#EFC43A"/>
<path d="M120.872 25.5244C120.872 25.5244 122.654 29.0077 121.493 31.9858C120.039 35.7083 117.414 37.4721 117.414 37.4721C117.414 37.4721 116.085 33.5102 116.581 31.2058C117.264 27.9707 120.872 25.5244 120.872 25.5244Z" fill="#EFC43A"/>
<path d="M100.739 28.0504C100.739 28.0504 103.15 31.0285 106.279 31.1703C110.189 31.3475 112.813 29.699 112.813 29.699C112.813 29.699 109.79 26.9336 107.538 26.455C104.373 25.7991 100.739 28.0504 100.739 28.0504Z" fill="#EFC43A"/>
<path d="M113.487 16.6433C113.487 16.6433 115.801 19.7011 115.18 22.7767C114.409 26.6145 112.175 28.7594 112.175 28.7594C112.175 28.7594 110.216 25.1609 110.296 22.8565C110.429 19.6214 113.487 16.6433 113.487 16.6433Z" fill="#EFC43A"/>
<path d="M94.4086 22.4489C94.4086 22.4489 97.2455 24.9129 100.295 24.514C104.099 24.0177 106.35 21.988 106.35 21.988C106.35 21.988 102.964 19.8342 100.703 19.7544C97.5292 19.657 94.4086 22.4489 94.4086 22.4489Z" fill="#EFC43A"/>
<path d="M104.772 9.26904C104.772 9.26904 107.529 11.8305 107.45 14.8972C107.361 18.735 105.57 21.1813 105.57 21.1813C105.57 21.1813 103.061 18.0437 102.76 15.8013C102.325 12.6637 104.772 9.26904 104.772 9.26904Z" fill="#EFC43A"/>
<path d="M87.2452 18.0614C87.2452 18.0614 90.4013 19.9581 93.2738 19.054C96.8643 17.9284 98.6906 15.5885 98.6906 15.5885C98.6906 15.5885 95.0557 14.0817 92.8571 14.4008C89.7808 14.844 87.2452 18.0614 87.2452 18.0614Z" fill="#EFC43A"/>
<path d="M95.0025 3.57886C95.0025 3.57886 98.0966 5.58196 98.5487 8.56003C99.1161 12.2738 97.804 14.9505 97.804 14.9505C97.804 14.9505 94.8518 12.3447 94.1781 10.2352C93.2206 7.27485 95.0025 3.57886 95.0025 3.57886Z" fill="#EFC43A"/>
<path d="M79.5588 15.0213C79.5588 15.0213 82.9366 16.3153 85.5519 14.9593C88.8233 13.2664 90.1886 10.6872 90.1886 10.6872C90.1886 10.6872 86.4296 9.854 84.3639 10.5276C81.4561 11.476 79.5588 15.0213 79.5588 15.0213Z" fill="#EFC43A"/>
<path d="M84.5767 -0.276611C84.5767 -0.276611 87.9101 1.13265 88.8499 3.92459C90.0201 7.41673 89.2222 10.2175 89.2222 10.2175C89.2222 10.2175 85.9331 8.20557 84.9136 6.29109C83.4863 3.59665 84.5767 -0.276611 84.5767 -0.276611Z" fill="#EFC43A"/>
<path d="M84.426 8.33856C84.426 8.33856 81.9348 9.74783 79.7273 8.98558C76.9701 8.03721 75.6049 6.17592 75.6049 6.17592C75.6049 6.17592 78.4595 5.08573 80.1529 5.36936C82.5288 5.78593 84.426 8.33856 84.426 8.33856Z" fill="#EFC43A"/>
<path d="M29.8501 50.785V40.1047H31.9867V50.785H29.8501ZM36.8361 42.1256H32.43V40.1047H36.8361V42.1256ZM35.9141 46.3356H32.43V44.3148H35.9141V46.3356ZM36.8361 50.785H32.43V48.7642H36.8361V50.785Z" fill="#EFC43A"/>
<path d="M40.2494 50.8471C38.9994 50.8471 38.1394 49.9873 38.1394 48.7376V40.1047H40.276V48.321C40.276 48.649 40.4533 48.8262 40.7813 48.8262H41.7299V50.8471H40.2494ZM43.1218 48.8262C43.4498 48.8262 43.6271 48.649 43.6271 48.321V40.1047H45.7637V48.7376C45.7637 49.9873 44.9038 50.8471 43.6537 50.8471H42.1732V48.8262H43.1218Z" fill="#EFC43A"/>
<path d="M49.4606 40.1047V50.785H47.324V40.1047H49.4606ZM52.9004 50.785L51.1805 46.8231H49.9038V44.8377H52.2354C52.5635 44.8377 52.7408 44.6605 52.7408 44.3325V42.6308C52.7408 42.3028 52.5635 42.1256 52.2354 42.1256H49.9038V40.1047H52.7674C54.0174 40.1047 54.8774 40.9645 54.8774 42.2142V44.7225C54.8774 45.7329 54.31 46.4863 53.4234 46.7433L55.2054 50.7939H52.9004V50.785Z" fill="#EFC43A"/>
<path d="M58.8845 42.0635C58.5565 42.0635 58.3792 42.2407 58.3792 42.5687V48.3298C58.3792 48.6578 58.5565 48.835 58.8845 48.835H59.9218V50.8559H58.3437C57.0937 50.8559 56.2338 49.9961 56.2338 48.7464V42.161C56.2338 40.9113 57.0937 40.0515 58.3437 40.0515H59.9218V42.0723H58.8845V42.0635ZM61.9254 40.0515C63.1666 40.0515 64.0354 40.9113 64.0354 42.161V48.7464C64.0354 49.9961 63.1754 50.8559 61.9254 50.8559H60.3739V48.8262H61.3935C61.7215 48.8262 61.8988 48.6489 61.8988 48.321V42.5598C61.8988 42.2319 61.7215 42.0546 61.3935 42.0546H60.3739V40.0515H61.9254Z" fill="#EFC43A"/>
<path d="M65.5425 50.785V40.1047H67.6791V50.785H65.5425ZM71.0036 40.1047C72.2536 40.1047 73.1136 40.9645 73.1136 42.2142V44.9175C73.1136 46.1672 72.2536 47.027 71.0036 47.027H68.1223V45.0061H70.4628C70.7909 45.0061 70.9682 44.8289 70.9682 44.5009V42.6308C70.9682 42.3028 70.7909 42.1256 70.4628 42.1256H68.1223V40.1047H71.0036Z" fill="#EFC43A"/>
<path d="M74.4169 50.785V40.1047H76.5534V50.785H74.4169ZM81.4029 42.1256H76.9967V40.1047H81.4029V42.1256ZM80.4897 46.3356H77.0056V44.3148H80.4897V46.3356ZM81.4029 50.785H76.9967V48.7642H81.4029V50.785Z" fill="#EFC43A"/>
<path d="M85.7647 40.1047H85.8711L86.7931 43.2689L84.5412 50.7939H82.3337L85.7647 40.1047ZM88.708 48.3831H85.6672L86.2612 46.3622H88.1318L86.3232 40.1047H88.2647L91.7046 50.785H89.4084L88.708 48.3831Z" fill="#EFC43A"/>
<path d="M94.8607 50.785H92.8571V40.6277L94.8607 44.3503V50.785ZM93.0344 40.1047H95.1532L100.907 50.785H98.7881L93.0344 40.1047ZM99.0895 46.5484V40.1136H101.093V50.2798L99.0895 46.5484Z" fill="#EFC43A"/>
<path d="M53.0688 55.4027C53.0688 55.0747 52.8915 54.8975 52.5635 54.8975H50.4269C50.0989 54.8975 49.9216 55.0747 49.9216 55.4027V56.4131C49.9216 56.741 50.0989 56.8474 50.4269 56.9183L53.1841 57.5121C54.3366 57.7603 55.3207 58.4605 55.3207 59.6482V61.5804C55.3207 62.8301 54.4607 63.6899 53.2107 63.6899H49.8861C48.6361 63.6899 47.7761 62.8301 47.7761 61.5804V60.2154H49.8506V61.1638C49.8506 61.4918 50.028 61.669 50.356 61.669H52.6699C52.9979 61.669 53.1752 61.4918 53.1752 61.1638V60.0382C53.1752 59.7102 52.9979 59.6039 52.6699 59.533L49.9127 58.9391C48.7602 58.6821 47.785 57.9908 47.785 56.8031V54.995C47.785 53.7452 48.6449 52.8855 49.895 52.8855H53.0422C54.2923 52.8855 55.1522 53.7452 55.1522 54.995V56.2447H53.0777V55.4027H53.0688Z" fill="#333333"/>
<path d="M63.7784 52.9475V54.9683H58.9289V57.1664H62.8652V59.1873H58.9289V61.6247H63.7784V63.6455H56.7924V52.9475H63.7784Z" fill="#333333"/>
<path d="M66.8989 63.6278H64.6914L68.1312 52.9475H70.6224L74.0622 63.6278H71.7572L71.0568 61.2258H67.5993L66.8989 63.6278ZM68.211 59.205H70.4983L69.3724 55.2874L68.211 59.205Z" fill="#333333"/>
<path d="M80.8 63.6278L79.0801 59.6659H77.3602V63.6278H75.2236V52.9475H80.667C81.9171 52.9475 82.777 53.8073 82.777 55.057V57.5653C82.777 58.5757 82.2096 59.3291 81.3231 59.5861L83.105 63.6366H80.8V63.6278ZM80.6404 55.4647C80.6404 55.1367 80.4631 54.9595 80.1351 54.9595H77.3602V57.6716H80.1351C80.4631 57.6716 80.6404 57.4944 80.6404 57.1664V55.4647Z" fill="#333333"/>
<path d="M89.6034 55.4027C89.6034 55.0747 89.4261 54.8975 89.0981 54.8975H86.7842C86.4562 54.8975 86.2789 55.0747 86.2789 55.4027V61.1638C86.2789 61.4918 86.4562 61.669 86.7842 61.669H89.0981C89.4261 61.669 89.6034 61.4918 89.6034 61.1638V59.8609H91.74V61.5804C91.74 62.8301 90.8801 63.6899 89.63 63.6899H86.2434C84.9934 63.6899 84.1334 62.8301 84.1334 61.5804V54.995C84.1334 53.7452 84.9934 52.8855 86.2434 52.8855H89.63C90.8801 52.8855 91.74 53.7452 91.74 54.995V56.7144H89.6034V55.4027Z" fill="#333333"/>
<path d="M93.1407 52.9475H95.2773V57.1576H98.9565V52.9475H101.093V63.6278H98.9565V59.1784H95.2773V63.6278H93.1407V52.9475Z" fill="#333333"/>
<path d="M46.1981 76.462H43.9906L47.4304 65.7817H49.9216L53.3614 76.462H51.0653L50.3649 74.0601H46.9073L46.1981 76.462ZM47.5013 72.0392H49.7886L48.6627 68.1216L47.5013 72.0392Z" fill="#333333"/>
<path d="M61.0212 76.462L59.2747 69.4334L57.5282 76.462H55.4182L52.7585 65.7817H55.0458L56.4998 73.5814L58.4325 65.7817H60.1258L62.0584 73.5814L63.5124 65.7817H65.711L63.0514 76.462H61.0212V76.462Z" fill="#333333"/>
<path d="M67.3157 76.462H65.1082L68.548 65.7817H71.0392L74.479 76.462H72.1739L71.4736 74.0601H68.016L67.3157 76.462ZM68.6278 72.0392H70.915L69.7891 68.1216L68.6278 72.0392Z" fill="#333333"/>
<path d="M81.2168 76.462L79.4969 72.5001H77.777V76.462H75.6404V65.7817H81.0838C82.3338 65.7817 83.1938 66.6415 83.1938 67.8912V70.3995C83.1938 71.4099 82.6264 72.1633 81.7398 72.4203L83.5218 76.4709H81.2168V76.462ZM81.0572 68.2989C81.0572 67.971 80.8799 67.7937 80.5519 67.7937H77.777V70.5059H80.5519C80.8799 70.5059 81.0572 70.3286 81.0572 70.0007V68.2989Z" fill="#333333"/>
<path d="M90.4102 65.7817C91.6602 65.7817 92.5202 66.6415 92.5202 67.8912V74.3614C92.5202 75.6111 91.6602 76.4709 90.4102 76.4709H84.8427V65.7817H90.4102ZM89.8782 74.4412C90.2063 74.4412 90.3836 74.2639 90.3836 73.936V68.2989C90.3836 67.971 90.2063 67.7937 89.8782 67.7937H86.9881V74.4412H89.8782V74.4412Z" fill="#333333"/>
<path d="M99.1427 68.2457C99.1427 67.9177 98.9654 67.7405 98.6373 67.7405H96.5008C96.1727 67.7405 95.9954 67.9177 95.9954 68.2457V69.2561C95.9954 69.584 96.1727 69.6904 96.5008 69.7613L99.2579 70.3552C100.419 70.6033 101.394 71.3035 101.394 72.4912V74.4234C101.394 75.6731 100.535 76.5329 99.2845 76.5329H95.96C94.7099 76.5329 93.85 75.6731 93.85 74.4234V73.0585H95.9245V74.0068C95.9245 74.3348 96.1018 74.512 96.4298 74.512H98.7437C99.0717 74.512 99.249 74.3348 99.249 74.0068V72.8812C99.249 72.5533 99.0717 72.4469 98.7437 72.376L95.9866 71.7821C94.834 71.5251 93.85 70.8338 93.85 69.6461V67.838C93.85 66.5883 94.7099 65.7285 95.96 65.7285H99.1072C100.357 65.7285 101.217 66.5883 101.217 67.838V69.0877H99.1427V68.2457Z" fill="#333333"/>
<path d="M74.2485 89.296H70.7023V85.7064C70.7023 84.5187 71.7129 83.9515 72.8389 83.5703L75.3921 82.684C75.7822 82.5511 75.9861 82.4801 75.9861 82.0902V81.1684C75.9861 80.7784 75.7822 80.5745 75.3921 80.5745H74.6917V78.5537H75.9861C77.1741 78.5537 78.1227 79.5021 78.1227 80.6898V82.5599C78.1227 83.7476 77.112 84.3149 75.9861 84.696L73.4328 85.5823C73.0428 85.7153 72.8389 85.7862 72.8389 86.1761V87.2752H74.2485V89.296V89.296ZM70.8175 80.6898C70.8175 79.5021 71.7661 78.5537 72.9541 78.5537H74.2485V80.5745H73.4949C73.1137 80.5745 72.9009 80.7784 72.9009 81.1684V81.8509H70.8264V80.6898H70.8175ZM74.6917 89.296V87.2752H78.1493V89.296H74.6917Z" fill="#EFC43A"/>
<path d="M82.0323 80.5744C81.7043 80.5744 81.527 80.7516 81.527 81.0796V86.8407C81.527 87.1687 81.7043 87.3459 82.0323 87.3459H82.9366V89.3668H81.5004C80.2503 89.3668 79.3904 88.507 79.3904 87.2573V80.6719C79.3904 79.4221 80.2503 78.5624 81.5004 78.5624H82.9366V80.5832H82.0323V80.5744ZM84.8338 78.5535C86.0838 78.5535 86.9438 79.4133 86.9438 80.663V87.2484C86.9438 88.4982 86.0838 89.3579 84.8338 89.3579H83.3798V87.3371H84.3019C84.6299 87.3371 84.8072 87.1598 84.8072 86.8319V81.0707C84.8072 80.7428 84.6299 80.5655 84.3019 80.5655H83.3798V78.5447H84.8338V78.5535Z" fill="#EFC43A"/>
<path d="M90.1 80.8404L88.1584 81.5229V79.7414L90.5521 78.6157H92.2454V89.296H90.1089V80.8404H90.1Z" fill="#EFC43A"/>
<path d="M98.6109 87.3372C99.0009 87.3372 99.2048 87.1334 99.2048 86.7434V84.1642L98.9123 84.4478C98.5843 84.758 98.0257 85.2632 97.219 85.2632H95.9601C94.7721 85.2632 93.8235 84.3149 93.8235 83.1272V80.6898C93.8235 79.5021 94.7721 78.5537 95.9601 78.5537H97.3519V80.5745H96.5541C96.1728 80.5745 95.9601 80.7784 95.9601 81.1684V82.7726C95.9601 83.1626 96.164 83.3665 96.5541 83.3665H97.4317C97.8484 83.3665 98.3981 83.2778 98.9123 82.9676L99.2048 82.7904V81.1772C99.2048 80.7873 99.0009 80.5834 98.6109 80.5834H97.7952V78.5626H99.2048C100.393 78.5626 101.341 79.5109 101.341 80.6986V87.2309C101.341 88.4186 100.393 89.3669 99.2048 89.3669H97.8573V87.3461H98.6109V87.3372ZM96.0753 89.3581C94.8873 89.3581 93.9387 88.4097 93.9387 87.222V86.2471H96.0753V86.7523C96.0753 87.1334 96.2792 87.3461 96.6693 87.3461H97.414V89.3669H96.0753V89.3581Z" fill="#EFC43A"/>
</g>
<defs>
<clipPath id="clip0">
<path d="M0 0H132.362V129.697H0V0Z" fill="white"/>
</clipPath>
</defs>
</svg>
