<svg width="88" height="88" viewBox="0 0 88 88" fill="none" xmlns="http://www.w3.org/2000/svg">
<path d="M27.0401 49.5353C25.4001 51.7953 34.6901 75.2953 37.5301 78.3553C40.5901 77.6153 61.3801 73.4353 83.0701 62.2453" stroke="#98AAAF" stroke-width="2" stroke-linecap="round" stroke-linejoin="round"/>
<path d="M72.34 33.5853C67.86 34.4053 29.37 46.8553 27.41 49.1453" stroke="#98AAAF" stroke-width="2" stroke-linecap="round" stroke-linejoin="round"/>
<path d="M49.95 60.5653L37.53 78.3553" stroke="#98AAAF" stroke-width="2" stroke-linecap="round" stroke-linejoin="round"/>
<path d="M27.04 49.5353C27.04 49.5353 45.4 61.5753 56.19 61.1453C64.33 55.5753 72.35 33.5953 72.35 33.5953C77.45 40.3253 81.85 56.8653 83.08 62.2553L61.03 56.6053" stroke="#98AAAF" stroke-width="2" stroke-linecap="round" stroke-linejoin="round"/>
<path d="M31.3999 11.1153C26.6399 8.92534 26.0499 8.67534 25.1499 8.28534C23.9699 10.3753 12.8699 32.7453 6.18994 51.1453" stroke="#98AAAF" stroke-width="2" stroke-linecap="round" stroke-linejoin="round"/>
<path d="M46.0099 17.8653C40.8199 15.4553 42.3399 16.1553 38.1499 14.2253" stroke="#98AAAF" stroke-width="2" stroke-linecap="round" stroke-linejoin="round"/>
<path d="M60.2399 24.5353C55.9499 22.5053 57.8899 23.3553 52.7699 20.9753" stroke="#98AAAF" stroke-width="2" stroke-linecap="round" stroke-linejoin="round"/>
<path d="M72.34 33.8053C72.98 32.4253 73.43 31.4553 73.61 31.0353C72.56 30.3953 72.19 30.1253 66.99 27.6553" stroke="#98AAAF" stroke-width="2" stroke-linecap="round" stroke-linejoin="round"/>
<path d="M6.18994 51.1453C8.17994 52.0653 19.0099 57.0153 29.5799 61.6253" stroke="#98AAAF" stroke-width="2" stroke-linecap="round" stroke-linejoin="round"/>
<path d="M20.11 18.7553C23.7 19.9053 46.45 30.5553 59.88 36.9653" stroke="#98AAAF" stroke-width="2" stroke-linecap="round" stroke-linejoin="round"/>
<path d="M31.9599 19.1653C30.1299 18.3153 28.9499 16.3953 31.1099 11.7053C33.2699 7.01534 35.0599 6.45534 37.0299 7.36534C38.9999 8.27534 39.9299 10.3753 37.9699 14.6253C36.0099 18.8753 34.2599 20.2453 31.9599 19.1653Z" stroke="#98AAAF" stroke-width="2" stroke-linecap="round" stroke-linejoin="round"/>
<path d="M46.5799 25.9053C44.7499 25.0553 43.5699 23.1353 45.7299 18.4453C47.8899 13.7553 49.6799 13.1953 51.6499 14.1053C53.6199 15.0153 54.5499 17.1153 52.5899 21.3653C50.6299 25.6153 48.8799 26.9753 46.5799 25.9053Z" stroke="#98AAAF" stroke-width="2" stroke-linecap="round" stroke-linejoin="round"/>
<path d="M60.8499 32.4853C59.0199 31.6353 57.8399 29.7153 59.9999 25.0253C62.1599 20.3353 63.9499 19.7753 65.9199 20.6853C67.8899 21.5953 68.8199 23.6953 66.8599 27.9453C64.8999 32.1853 63.1499 33.5553 60.8499 32.4853Z" stroke="#98AAAF" stroke-width="2" stroke-linecap="round" stroke-linejoin="round"/>
<path d="M14.75 81.1354C18.6 79.7454 25.96 75.8054 29.31 72.5554" stroke="#98AAAF" stroke-width="2" stroke-linecap="round" stroke-linejoin="round"/>
<path d="M4 74.6153C9.48 74.1753 20.59 69.4453 24.67 65.2153" stroke="#98AAAF" stroke-width="2" stroke-linecap="round" stroke-linejoin="round"/>
<path d="M4.43005 66.1753C8.37005 65.3653 12.2201 63.5453 14.9201 61.5053" stroke="#98AAAF" stroke-width="2" stroke-linecap="round" stroke-linejoin="round"/>
</svg>
