<svg width="88" height="88" viewBox="0 0 88 88" fill="none" xmlns="http://www.w3.org/2000/svg">
<path d="M56.9399 13.99C69.4399 14.06 76.4799 14.26 80.7399 14.64C80.7399 20.24 81.3299 53.71 81.3299 56.07" stroke="#98AAAF" stroke-width="2" stroke-linecap="round" stroke-linejoin="round"/>
<path d="M58.77 78.55C55.59 78.63 28.89 79.64 21.35 78.76C21.05 73.65 20.41 20.19 21.5 14.22C24.89 14 32.74 13.91 46.03 13.98" stroke="#98AAAF" stroke-width="2" stroke-linecap="round" stroke-linejoin="round"/>
<path d="M45.68 13.67C36.29 11.9 18.81 9.17 15.93 8.25C13.34 18.61 8.38 67.11 7 72.34C9.88 73.32 15.43 74.46 20.89 75.43" stroke="#98AAAF" stroke-width="2" stroke-linecap="round" stroke-linejoin="round"/>
<path d="M51.49 19.72C54.5055 19.72 56.95 17.0964 56.95 13.86C56.95 10.6236 54.5055 8 51.49 8C48.4746 8 46.03 10.6236 46.03 13.86C46.03 17.0964 48.4746 19.72 51.49 19.72Z" stroke="#98AAAF" stroke-width="2" stroke-linecap="round" stroke-linejoin="round"/>
<path d="M58.77 78.55C69.94 78.55 81.34 65.56 81.34 56.07C81.34 60.57 71.62 64.28 65.75 61.27C67.25 68.62 64.62 78.55 58.77 78.55Z" stroke="#98AAAF" stroke-width="2" stroke-linecap="round" stroke-linejoin="round"/>
<path d="M39.1899 46.48C37.9599 42.41 38.8899 37.82 42.0299 34.54L49.8999 26.32C54.5299 21.48 62.2399 21.31 67.0799 25.94C69.4199 28.18 70.7399 31.2 70.8199 34.45C70.8899 37.7 69.6999 40.78 67.4599 43.12L59.5899 51.34C58.6099 52.36 57.4899 53.18 56.2999 53.78C54.6599 54.61 52.8799 55.04 51.0799 55.08C47.9699 55.15 44.8299 54.03 42.4099 51.72C42.2499 51.56 42.0899 51.4 41.9299 51.24M45.5999 47.8C45.6899 47.9 45.7899 47.99 45.8799 48.09C48.7199 50.81 53.2399 50.71 55.9599 47.87L63.8299 39.65C65.1399 38.28 65.8399 36.48 65.7899 34.57C65.7499 32.66 64.9699 30.89 63.5999 29.58C62.2299 28.27 60.4299 27.57 58.5199 27.62C56.6099 27.66 54.8399 28.44 53.5299 29.81L45.6599 38.03C44.3799 39.36 43.7299 41.07 43.6899 42.78" stroke="#98AAAF" stroke-width="2" stroke-miterlimit="10" stroke-linecap="round" stroke-linejoin="round"/>
<path d="M60.88 50.19C62.11 54.26 61.18 58.85 58.04 62.13L50.17 70.35C45.54 75.19 37.83 75.36 32.99 70.73C30.65 68.49 29.33 65.47 29.25 62.22C29.18 58.97 30.37 55.89 32.61 53.55L40.48 45.33C41.46 44.31 42.58 43.49 43.77 42.89C45.41 42.06 47.19 41.63 48.99 41.59C52.1 41.52 55.24 42.64 57.66 44.95C57.82 45.11 57.98 45.27 58.14 45.43M54.47 48.87C54.38 48.77 54.28 48.68 54.19 48.58C51.35 45.86 46.83 45.96 44.11 48.8L36.24 57.02C34.93 58.39 34.23 60.19 34.28 62.1C34.32 64.01 35.1 65.78 36.47 67.09C37.84 68.4 39.64 69.1 41.55 69.05C43.46 69.01 45.23 68.23 46.54 66.86L54.41 58.64C55.69 57.31 56.34 55.6 56.38 53.89" stroke="#98AAAF" stroke-width="2" stroke-miterlimit="10" stroke-linecap="round" stroke-linejoin="round"/>
</svg>
