<svg width="88" height="88" viewBox="0 0 88 88" fill="none" xmlns="http://www.w3.org/2000/svg">
<path d="M26.37 66.2544V20.9444" stroke="#98AAAF" stroke-width="2" stroke-linecap="round" stroke-linejoin="round"/>
<path d="M22.23 59.9344C22.23 59.9344 25.11 64.9444 26.35 66.6844C28.27 65.4344 31.08 59.4544 31.08 59.4544" stroke="#98AAAF" stroke-width="2" stroke-linecap="round" stroke-linejoin="round"/>
<path d="M14.71 21.3844V66.6944" stroke="#98AAAF" stroke-width="2" stroke-linecap="round" stroke-linejoin="round"/>
<path d="M18.85 27.7044C18.85 27.7044 15.97 22.6944 14.73 20.9544C12.81 22.2044 10 28.1844 10 28.1844" stroke="#98AAAF" stroke-width="2" stroke-linecap="round" stroke-linejoin="round"/>
<path d="M45.14 52.2544C40.08 49.5444 36.58 44.2644 36.45 38.1344L36.11 22.7744C35.91 13.7244 43.11 6.20437 52.16 6.00437C56.53 5.90437 60.68 7.52437 63.86 10.5644C67.03 13.6044 68.83 17.6844 68.93 22.0444L69.27 37.4044C69.31 39.3144 69.02 41.1644 68.46 42.8844C67.69 45.2344 66.39 47.3544 64.72 49.1044C61.81 52.1444 57.75 54.0744 53.23 54.1744C52.92 54.1844 52.62 54.1744 52.31 54.1644M52.52 47.3944C52.7 47.4044 52.88 47.4044 53.07 47.3944C58.38 47.2744 62.6 42.8644 62.48 37.5644L62.14 22.2044C62.08 19.6444 61.03 17.2544 59.16 15.4744C57.3 13.6944 54.86 12.7344 52.3 12.7944C49.74 12.8544 47.35 13.9044 45.57 15.7744C43.79 17.6344 42.83 20.0744 42.89 22.6344L43.23 37.9944C43.28 40.4844 44.29 42.7444 45.89 44.4144" stroke="#98AAAF" stroke-width="2" stroke-miterlimit="10" stroke-linecap="round" stroke-linejoin="round"/>
<path d="M69.39 35.0744C74.45 37.7844 77.95 43.0644 78.08 49.1944L78.42 64.5544C78.62 73.6044 71.42 81.1244 62.37 81.3244C58 81.4244 53.85 79.8044 50.67 76.7644C47.5 73.7244 45.7 69.6444 45.6 65.2844L45.26 49.9244C45.22 48.0144 45.51 46.1644 46.07 44.4444C46.84 42.0944 48.14 39.9744 49.81 38.2244C52.72 35.1844 56.78 33.2544 61.3 33.1544C61.61 33.1444 61.91 33.1544 62.22 33.1644M62.01 39.9344C61.83 39.9244 61.65 39.9244 61.46 39.9344C56.15 40.0544 51.93 44.4644 52.05 49.7644L52.39 65.1244C52.45 67.6844 53.5 70.0744 55.37 71.8544C57.23 73.6344 59.67 74.5944 62.23 74.5344C64.79 74.4744 67.18 73.4244 68.96 71.5544C70.74 69.6944 71.7 67.2544 71.64 64.6944L71.3 49.3344C71.25 46.8444 70.24 44.5844 68.64 42.9144" stroke="#98AAAF" stroke-width="2" stroke-miterlimit="10" stroke-linecap="round" stroke-linejoin="round"/>
</svg>
