<svg width="88" height="88" viewBox="0 0 88 88" fill="none" xmlns="http://www.w3.org/2000/svg">
<path d="M32.3533 61.9355C33.4633 65.5755 32.6333 69.7055 29.8233 72.6555L22.7833 80.0455C18.6333 84.3955 11.7233 84.5655 7.37326 80.4155C5.27326 78.4155 4.07326 75.7055 4.00326 72.7855C3.93326 69.8655 4.99326 67.1055 7.00326 65.0055L14.0433 57.6155C14.9233 56.6955 15.9233 55.9655 16.9933 55.4155C18.4633 54.6755 20.0633 54.2755 21.6733 54.2355C24.4633 54.1655 27.2833 55.1655 29.4533 57.2355C29.6033 57.3755 29.7433 57.5255 29.8833 57.6655M26.5933 60.7655C26.5133 60.6755 26.4233 60.5955 26.3333 60.5055C23.7833 58.0755 19.7233 58.1655 17.2933 60.7255L10.2533 68.1155C9.08326 69.3455 8.46326 70.9655 8.50326 72.6755C8.54326 74.3855 9.24326 75.9755 10.4733 77.1555C11.7033 78.3255 13.3233 78.9455 15.0433 78.9055C16.7533 78.8655 18.3433 78.1655 19.5233 76.9355L26.5633 69.5455C27.7033 68.3455 28.2933 66.8155 28.3233 65.2755" stroke="#98AAAF" stroke-width="2" stroke-miterlimit="10" stroke-linecap="round" stroke-linejoin="round"/>
<path d="M36.2932 57.3955L31.1932 62.9655C30.3132 63.8855 29.3132 64.6155 28.2432 65.1655C26.7732 65.9055 25.1732 66.3055 23.5632 66.3455C20.7732 66.4155 17.9532 65.4155 15.7832 63.3455C15.6332 63.2055 15.4932 63.0555 15.3532 62.9155M12.8832 58.6455C11.7732 55.0055 12.6032 50.8755 15.4132 47.9255L22.4532 40.5355M23.7532 45.7055L18.6732 51.0355C17.5332 52.2355 16.9432 53.7655 16.9132 55.3055M18.6332 59.8255C18.7132 59.9155 18.8032 59.9955 18.8932 60.0855C21.4432 62.5155 25.5032 62.4255 27.9332 59.8655L32.3932 55.1855" stroke="#98AAAF" stroke-width="2" stroke-miterlimit="10" stroke-linecap="round" stroke-linejoin="round"/>
<path d="M24.3832 33.5755C30.5832 28.7255 39.4032 29.2855 44.9832 35.0655C47.8532 38.0455 49.3932 41.9855 49.3232 46.1455C49.2432 50.3055 47.5632 54.1855 44.5732 57.0555L42.3232 59.2255M35.3432 56.9255L40.1032 52.4355C41.8532 50.7555 42.8332 48.4855 42.8832 46.0355C42.9332 43.5855 42.0232 41.2855 40.3432 39.5355C38.6632 37.7855 36.3932 36.8055 33.9432 36.7555C31.4932 36.7055 29.1932 37.6155 27.4432 39.2955L24.1932 42.3855" stroke="#98AAAF" stroke-width="2" stroke-miterlimit="10" stroke-linecap="round" stroke-linejoin="round"/>
<path d="M60.1338 54.503C69.4554 46.5808 70.3232 32.2881 62.072 22.5793C53.8208 12.8705 39.5752 11.4222 30.2535 19.3443C20.9319 27.2665 20.0642 41.5592 28.3154 51.268C36.5666 60.9768 50.8122 62.4252 60.1338 54.503Z" stroke="#98AAAF" stroke-width="2" stroke-linecap="round" stroke-linejoin="round"/>
<path d="M63.4633 51.3555L82.9333 74.2655C84.5333 76.1455 84.3033 78.9755 82.4233 80.5755C80.5433 82.1755 77.7133 81.9455 76.1133 80.0655L56.6433 57.1555" stroke="#98AAAF" stroke-width="2" stroke-linecap="round" stroke-linejoin="round"/>
<path d="M24.3033 33.6354L22.8533 34.6354" stroke="#98AAAF" stroke-width="2" stroke-miterlimit="10" stroke-linecap="round" stroke-linejoin="round"/>
<path d="M34.9232 22.0654C41.9932 17.4054 51.7832 18.8654 57.6332 25.7454C58.1432 26.3454 58.6032 26.9554 59.0132 27.5954" stroke="#98AAAF" stroke-width="2" stroke-linecap="round" stroke-linejoin="round"/>
</svg>
