<svg width="88" height="88" viewBox="0 0 88 88" fill="none" xmlns="http://www.w3.org/2000/svg">
<path d="M21.62 73.4265C30.799 73.4265 38.24 65.9855 38.24 56.8065C38.24 47.6276 30.799 40.1865 21.62 40.1865C12.441 40.1865 5 47.6276 5 56.8065C5 65.9855 12.441 73.4265 21.62 73.4265Z" stroke="#98AAAF" stroke-width="2" stroke-linecap="round" stroke-linejoin="round"/>
<path d="M34.11 45.4965L37.33 42.1365L39.25 40.1365C45.79 33.2965 56.68 33.0665 63.51 39.6065C63.74 39.8265 63.96 40.0465 64.18 40.2765M68.04 46.9665C68.49 48.4565 68.74 50.0165 68.78 51.6265C68.88 56.2165 67.2 60.5665 64.04 63.8665L52.93 75.4665C49.66 78.8865 45.3 80.6565 40.91 80.7465C36.52 80.8465 32.09 79.2665 28.67 75.9965C27.7 75.0665 26.86 74.0465 26.15 72.9565M32.43 69.5765C32.77 70.0365 33.15 70.4665 33.57 70.8765C37.58 74.7165 43.96 74.5765 47.8 70.5665L58.91 58.9565C60.65 57.1365 61.63 54.7565 61.68 52.2265M58.6 44.7265C56.67 42.8765 54.12 41.8965 51.42 41.9565C48.72 42.0165 46.22 43.1165 44.37 45.0465L37.78 51.9265" stroke="#98AAAF" stroke-width="2" stroke-miterlimit="10" stroke-linecap="round" stroke-linejoin="round"/>
<path d="M37.42 41.7665C35.68 36.0265 37 29.5365 41.43 24.8965L52.54 13.2865C59.08 6.44655 69.97 6.21655 76.8 12.7565C80.1 15.9165 81.97 20.1865 82.07 24.7765C82.17 29.3665 80.49 33.7165 77.33 37.0165L66.23 48.6265C64.85 50.0665 63.27 51.2165 61.58 52.0765C59.27 53.2465 56.75 53.8565 54.21 53.9065C49.82 54.0065 45.39 52.4265 41.97 49.1565C41.74 48.9365 41.51 48.7065 41.3 48.4765M46.47 43.6265C46.6 43.7665 46.73 43.8965 46.87 44.0365C50.88 47.8765 57.26 47.7365 61.1 43.7265L72.21 32.1165C74.06 30.1865 75.04 27.6365 74.98 24.9365C74.92 22.2365 73.82 19.7365 71.89 17.8865C69.96 16.0365 67.41 15.0565 64.71 15.1165C62.01 15.1765 59.51 16.2765 57.66 18.2065L46.56 29.8065C44.76 31.6865 43.83 34.0965 43.77 36.5165" stroke="#98AAAF" stroke-width="2" stroke-miterlimit="10" stroke-linecap="round" stroke-linejoin="round"/>
<path d="M16.5 57.7366H9.13C9.13 61.9666 11.41 65.6266 14.83 67.6166L18.69 60.9866C17.58 60.2466 16.77 59.0966 16.5 57.7366Z" stroke="#98AAAF" stroke-width="2" stroke-linecap="round" stroke-linejoin="round"/>
<path d="M23.45 51.9465L26.99 45.7466C23.7 43.8566 19.6 43.8066 16.22 45.7466L19.7 51.9265C20.27 51.7065 20.89 51.5766 21.54 51.5766C22.22 51.5666 22.86 51.7065 23.45 51.9465Z" stroke="#98AAAF" stroke-width="2" stroke-linecap="round" stroke-linejoin="round"/>
<path d="M26.59 57.6066C26.35 58.9566 25.6 60.1166 24.53 60.8766L28.4 67.6166C31.82 65.6666 34.11 61.9566 34.11 57.7266L26.59 57.6066Z" stroke="#98AAAF" stroke-width="2" stroke-linecap="round" stroke-linejoin="round"/>
<path d="M22.03 54.3065C21.89 54.2865 21.76 54.2665 21.62 54.2665C21.51 54.2665 21.41 54.2865 21.31 54.2965C20.1 54.4465 19.17 55.4665 19.17 56.7165C19.17 58.0665 20.27 59.1665 21.62 59.1665C22.97 59.1665 24.07 58.0665 24.07 56.7165C24.07 55.5065 23.19 54.5065 22.03 54.3065Z" fill="#98AAAF"/>
</svg>
