<svg width="88" height="88" viewBox="0 0 88 88" fill="none" xmlns="http://www.w3.org/2000/svg">
<path d="M26.88 26.01C23.23 25.24 20.5 21.99 20.5 18.09C20.5 13.62 24.09 10 28.53 10C32.97 10 36.56 13.62 36.56 18.09C36.56 19.63 35.55 23.35 33.59 24.21" stroke="#98AAAF" stroke-width="2" stroke-miterlimit="10" stroke-linecap="round" stroke-linejoin="round"/>
<path d="M12.53 77.98C17.241 77.98 21.06 74.3983 21.06 69.98C21.06 65.5617 17.241 61.98 12.53 61.98C7.81901 61.98 4 65.5617 4 69.98C4 74.3983 7.81901 77.98 12.53 77.98Z" stroke="#98AAAF" stroke-width="2" stroke-miterlimit="10" stroke-linecap="round" stroke-linejoin="round"/>
<path d="M76.97 52.04C81.4048 52.04 85 48.4583 85 44.04C85 39.6217 81.4048 36.04 76.97 36.04C72.5352 36.04 68.94 39.6217 68.94 44.04C68.94 48.4583 72.5352 52.04 76.97 52.04Z" stroke="#98AAAF" stroke-width="2" stroke-miterlimit="10" stroke-linecap="round" stroke-linejoin="round"/>
<path d="M43.16 75.25C41.39 72.82 28.59 59.06 25.67 56.79C14.8 48.33 21.8 45.99 35.59 51.45C17.21 5.01999 30.01 11.73 38.6 36.88" stroke="#98AAAF" stroke-width="2" stroke-miterlimit="10" stroke-linecap="round" stroke-linejoin="round"/>
<path d="M38.67 37C35.75 26.39 42.16 22.05 46.17 36.43" stroke="#98AAAF" stroke-width="2" stroke-miterlimit="10" stroke-linecap="round" stroke-linejoin="round"/>
<path d="M46.18 36.43C43.79 26 50.78 24.39 53.51 35.72" stroke="#98AAAF" stroke-width="2" stroke-miterlimit="10" stroke-linecap="round" stroke-linejoin="round"/>
<path d="M53.51 35.73C51.95 25.36 61.77 20.88 66.04 63.74C59.7 69.99 49.04 74.2 43.16 75.26" stroke="#98AAAF" stroke-width="2" stroke-miterlimit="10" stroke-linecap="round" stroke-linejoin="round"/>
<path d="M20.5 18.09H4" stroke="#98AAAF" stroke-width="2" stroke-miterlimit="10" stroke-linecap="round" stroke-linejoin="round"/>
<path d="M85 18.09H36.55" stroke="#98AAAF" stroke-width="2" stroke-miterlimit="10" stroke-linecap="round" stroke-linejoin="round"/>
<path d="M38.57 69.98H21.06" stroke="#98AAAF" stroke-width="2" stroke-miterlimit="10" stroke-linecap="round" stroke-linejoin="round"/>
<path d="M85 69.98H57.31" stroke="#98AAAF" stroke-width="2" stroke-miterlimit="10" stroke-linecap="round" stroke-linejoin="round"/>
<path d="M68.95 44.04H63.1" stroke="#98AAAF" stroke-width="2" stroke-miterlimit="10" stroke-linecap="round" stroke-linejoin="round"/>
<path d="M32.55 44.04H4" stroke="#98AAAF" stroke-width="2" stroke-miterlimit="10" stroke-linecap="round" stroke-linejoin="round"/>
</svg>
