<svg width="88" height="88" viewBox="0 0 88 88" fill="none" xmlns="http://www.w3.org/2000/svg">
<path d="M33.16 44.57V55.1H16.92C14.2 55.1 12 57.3 12 60.02V71.72C12 74.44 14.2 76.64 16.92 76.64H54.31V33.54H44.41" stroke="#98AAAF" stroke-width="2" stroke-miterlimit="10" stroke-linecap="round" stroke-linejoin="round"/>
<path d="M70.4599 76.66H54.3199V17.02C54.3199 14.25 56.5699 12 59.3399 12H70.4599C73.2299 12 75.4799 14.25 75.4799 17.02V71.64C75.4699 74.41 73.2299 76.66 70.4599 76.66Z" stroke="#98AAAF" stroke-width="2" stroke-miterlimit="10" stroke-linecap="round" stroke-linejoin="round"/>
<path d="M28.51 45.03C37.6282 45.03 45.02 37.6382 45.02 28.52C45.02 19.4018 37.6282 12.01 28.51 12.01C19.3918 12.01 12 19.4018 12 28.52C12 37.6382 19.3918 45.03 28.51 45.03Z" stroke="#98AAAF" stroke-width="2" stroke-miterlimit="10"/>
<path d="M29.77 29.57H37.99C37.47 34.32 33.43 38.02 28.54 38.02C23.29 38.02 19.03 33.76 19.03 28.51C19.03 23.26 23.29 19 28.54 19C31.4 19 33.97 20.27 35.71 22.27" stroke="#98AAAF" stroke-width="2" stroke-miterlimit="10" stroke-linecap="square"/>
</svg>
