<svg width="88" height="88" viewBox="0 0 88 88" fill="none" xmlns="http://www.w3.org/2000/svg">
<path d="M27.2 40.05H11V11H40.05V26.38" stroke="#98AAAF" stroke-width="2" stroke-miterlimit="10" stroke-linecap="round" stroke-linejoin="round"/>
<path d="M50.0699 26.9V20.2L76.3599 11V40.05L60.8999 40.59" stroke="#98AAAF" stroke-width="2" stroke-miterlimit="10" stroke-linecap="round" stroke-linejoin="round"/>
<path d="M40.05 59.47V76.36H11V47.31H27.55" stroke="#98AAAF" stroke-width="2" stroke-miterlimit="10" stroke-linecap="round" stroke-linejoin="round"/>
<path d="M60.5899 46.76L76.3599 47.31V76.36L50.0699 67.16V58.89" stroke="#98AAAF" stroke-width="2" stroke-miterlimit="10" stroke-linecap="round" stroke-linejoin="round"/>
<path d="M43.9701 59.83C53.3147 59.83 60.89 52.2546 60.89 42.91C60.89 33.5653 53.3147 25.99 43.9701 25.99C34.6254 25.99 27.05 33.5653 27.05 42.91C27.05 52.2546 34.6254 59.83 43.9701 59.83Z" stroke="#98AAAF" stroke-width="2" stroke-miterlimit="10"/>
<path d="M45.26 43.99H53.69C53.15 48.86 49.02 52.65 44.01 52.65C38.63 52.65 34.27 48.29 34.27 42.91C34.27 37.53 38.63 33.17 44.01 33.17C46.94 33.17 49.57 34.47 51.36 36.52" stroke="#98AAAF" stroke-width="2" stroke-miterlimit="10" stroke-linecap="square"/>
</svg>
