<svg width="500" height="50" viewBox="0 0 500 50" fill="none" xmlns="http://www.w3.org/2000/svg">
<g clip-path="url(#clip0)">
<path d="M346.2 8.8999H301.5L290 40.4999H298.7L307.4 16.4999H318.3C319.5 16.4999 320.1 17.4999 319.7 18.6999L311.8 40.4999H320.5L328.4 18.6999C328.8 17.4999 330.2 16.4999 331.4 16.4999H340.1C341.3 16.4999 341.9 17.4999 341.5 18.6999L333.6 40.4999H342.3L351.4 15.3999C352.7 11.8999 350.4 8.8999 346.2 8.8999Z" fill="#E75223"/>
<path d="M407 30.8C406.6 32 405.2 33 404 33H393.1C391.9 33 391.3 32 391.7 30.8L399.6 9.00003H390.9L381.8 34C380.5 37.6 382.8 40.5 387.1 40.5H406.7C409.7 40.5 412.9 38.5 413.7 36.1L423.6 8.80005H414.9L407 30.8Z" fill="#E75223"/>
<path d="M261.797 30.8L262.597 28.6H288.797L291.597 21L293.597 15.5C294.897 11.9 292.597 9 288.297 9H266.497C263.497 9 260.297 11 259.497 13.4L251.897 34C250.597 37.6 252.897 40.5 257.197 40.5H284.497L287.297 32.9H263.297C261.997 32.9 261.397 32 261.797 30.8ZM266.197 18.8C266.597 17.6 267.997 16.6 269.197 16.6H282.297C283.497 16.6 284.097 17.6 283.697 18.8L282.897 21H265.397L266.197 18.8Z" fill="#E75223"/>
<path d="M491.297 8.8999L486.897 20.8999H471.597L475.997 8.8999H467.297L455.797 40.5999H464.497L468.797 28.5999H484.097L479.797 40.5999H488.497L499.997 8.8999H491.297Z" fill="#E75223"/>
<path d="M357.697 13.3L347.797 40.5999H356.497L364.397 18.8C364.797 17.6 366.197 16.5999 367.397 16.5999H382.697L385.497 8.99993H364.797C361.697 8.89993 358.497 10.9 357.697 13.3Z" fill="#E75223"/>
<path d="M221.298 13.2999L218.098 21.9999C216.798 25.5999 219.098 28.4999 223.398 28.4999H237.598C238.798 28.4999 239.398 29.4999 238.998 30.6999C238.598 31.8999 237.198 32.8999 235.998 32.8999H214.198L211.398 40.4999H238.698C241.698 40.4999 244.898 38.4999 245.698 36.0999L248.898 27.3999C250.198 23.7999 247.898 20.8999 243.598 20.8999H229.398C228.198 20.8999 227.598 19.8999 227.998 18.6999C228.398 17.4999 229.798 16.4999 230.998 16.4999H252.798L255.598 8.8999H228.298C225.298 8.8999 222.198 10.8999 221.298 13.2999Z" fill="#E75223"/>
<path d="M427.498 13.2999L424.298 21.9999C422.998 25.5999 425.298 28.4999 429.598 28.4999H443.798C444.998 28.4999 445.598 29.4999 445.198 30.6999C444.798 31.8999 443.398 32.8999 442.198 32.8999H420.398L417.598 40.4999H444.898C447.898 40.4999 451.098 38.4999 451.898 36.0999L455.098 27.3999C456.398 23.7999 454.098 20.8999 449.798 20.8999H435.598C434.398 20.8999 433.798 19.8999 434.198 18.6999C434.598 17.4999 435.998 16.4999 437.198 16.4999H458.998L461.798 8.8999H434.498C431.498 8.8999 428.398 10.8999 427.498 13.2999Z" fill="#E75223"/>
<path d="M185.398 7.39999C179.198 0.899987 170.698 -1.3 159.898 0.700005C159.898 0.700005 146.998 3.79999 135.498 3.99999C130.598 4.09999 126.498 2.60001 122.998 1.80001C124.898 4.80001 127.798 6.9 131.098 8.1C134.198 9.2 138.398 11 136.498 13.9C134.398 17.2 131.098 14.4 130.198 13.7C127.098 11.4 125.698 9.59999 120.098 6.39999C113.998 2.79999 105.498 2.7 96.9984 3.6C96.9984 3.6 103.998 5.1 107.098 8.2C107.098 8.2 93.5984 5.4 84.7984 9.7C97.5984 10.2 111.698 12.2 114.098 13.3C116.498 14.4 115.298 15.2 112.998 15.7C107.298 16.9 96.7984 17.3 90.2984 15.5C80.9984 12.9 73.0984 5 59.5984 7.1C71.4984 9.6 77.7984 20.7 90.6984 23.3C103.598 25.9 112.298 20.8 115.298 20.1C118.198 19.4 120.798 20.4 121.498 22.4C122.198 24.4 119.598 26.9 116.098 27.6C113.498 28.1 112.598 28.1 107.798 28.6C97.8984 29.6 90.7984 28.4 84.4984 26.7C72.3984 23.5 64.0984 15.6 60.0984 13.5C56.0984 11.4 51.6984 10.4 48.2984 9.89999C48.2984 9.89999 54.7984 13.3 57.2984 17.5C51.4984 15.3 42.8984 14 31.5984 16.2C25.5984 17.3 14.1984 20.1 -0.101562 25.7C6.99844 27.8 15.9984 26.2 19.8984 25.9C41.0984 24.2 48.1984 28.8 54.7984 31.2C75.3984 38.5 82.4984 31.9 83.8984 34.1C84.8984 35.7 78.2984 38.4 76.4984 38.7C67.1984 40.4 62.6984 38.8 53.9984 36.7C58.2984 41 66.3984 44 75.6984 43.7C85.0984 43.2 95.0984 41.8 102.998 38.4C112.298 34.5 116.198 33.2 120.398 32C122.198 31.5 128.698 29.8 129.998 31.6C130.798 32.6 129.498 33.4 127.498 34.3C125.898 35 123.798 35.7 121.798 36.4C117.198 38.2 108.698 41.3 105.998 43.6C105.998 43.6 118.098 41.8 129.798 41.8C141.498 41.8 149.598 44.3 158.498 47.6C167.998 51.1 176.298 49.9 183.498 44C189.898 38.7 192.898 32.4 192.798 25.1C192.698 18.2 190.198 12.3 185.398 7.39999ZM168.698 44.9C157.598 44.9 148.698 35.9 148.698 24.9C148.698 13.9 157.698 4.89999 168.698 4.89999C179.698 4.89999 188.698 13.9 188.698 24.9C188.698 35.9 179.798 44.9 168.698 44.9Z" fill="#E75223"/>
<path d="M168.698 9.1001C159.998 9.1001 152.898 16.2001 152.898 24.9001C152.898 33.6001 159.998 40.7001 168.698 40.7001C177.398 40.7001 184.498 33.6001 184.498 24.9001C184.498 16.1001 177.498 9.1001 168.698 9.1001ZM176.098 35.4001C177.898 33.1001 178.898 30.3001 178.898 27.2001C178.898 20.8001 174.298 15.4001 168.198 14.2001C168.798 13.4001 169.398 12.7001 170.098 12.0001C176.298 13.1001 181.098 18.5001 181.098 25.0001C181.098 29.2001 179.098 32.9001 176.098 35.4001Z" fill="#E75223"/>
</g>
<defs>
<clipPath id="clip0">
<rect width="500" height="49.5" fill="white"/>
</clipPath>
</defs>
</svg>
