<?xml version="1.0" encoding="utf-8"?>
<!-- Generator: Adobe Illustrator 19.0.1, SVG Export Plug-In . SVG Version: 6.00 Build 0)  -->
<svg version="1.1" id="Layer_1" xmlns="http://www.w3.org/2000/svg" xmlns:xlink="http://www.w3.org/1999/xlink" x="0px" y="0px"
	 viewBox="-47 396.4 500 49.5" style="enable-background:new -47 396.4 500 49.5;" xml:space="preserve">
<style type="text/css">
	.st0{fill:#FFFFFF;}
</style>
<g>
	<g>
		<path class="st0" d="M299.2,405.3h-44.7l0,0L243,436.9l0,0h8.7l0,0l8.7-24l0,0h10.9c1.2,0,1.8,1,1.4,2.2l-7.9,21.8l0,0h8.7l0,0
			l7.9-21.8c0.4-1.2,1.8-2.2,3-2.2h8.7c1.2,0,1.8,1,1.4,2.2l-7.9,21.8l0,0h8.7l0,0l9.1-25.1C305.7,408.3,303.4,405.3,299.2,405.3z"
			/>
		<path class="st0" d="M360,427.2c-0.4,1.2-1.8,2.2-3,2.2l0,0h-10.9c-1.2,0-1.8-1-1.4-2.2l7.9-21.8l0,0h-8.7l0,0l-9.1,25
			c-1.3,3.6,1,6.5,5.3,6.5h19.6c3,0,6.2-2,7-4.4l9.9-27.3l0,0h-8.7l0,0L360,427.2z"/>
		<path class="st0" d="M214.8,427.2l0.8-2.2l0,0h26.2l0,0l2.8-7.6l2-5.5c1.3-3.6-1-6.5-5.3-6.5h-21.8c-3,0-6.2,2-7,4.4l0,0
			l-7.6,20.6c-1.3,3.6,1,6.5,5.3,6.5h27.3l0,0l2.8-7.6l0,0h-24C215,429.3,214.4,428.4,214.8,427.2z M219.2,415.2
			c0.4-1.2,1.8-2.2,3-2.2h13.1c1.2,0,1.8,1,1.4,2.2l-0.8,2.2l0,0h-17.5l0,0L219.2,415.2z"/>
		<polygon class="st0" points="444.3,405.3 439.9,417.3 439.9,417.3 424.6,417.3 424.6,417.3 429,405.3 429,405.3 420.3,405.3 
			420.3,405.3 408.8,437 408.8,437 417.5,437 417.5,437 421.8,425 421.8,425 437.1,425 437.1,425 432.8,437 432.8,437 441.5,437 
			441.5,437 453,405.3 453,405.3 		"/>
		<path class="st0" d="M310.7,409.7l-9.9,27.3l0,0h8.7l0,0l7.9-21.8c0.4-1.2,1.8-2.2,3-2.2h15.3l0,0l2.8-7.6l0,0h-20.7
			C314.7,405.3,311.5,407.3,310.7,409.7z"/>
		<path class="st0" d="M174.3,409.7L174.3,409.7l-3.2,8.7c-1.3,3.6,1,6.5,5.3,6.5h14.2l0,0c1.2,0,1.8,1,1.4,2.2l0,0
			c-0.4,1.2-1.8,2.2-3,2.2h-21.8l0,0l-2.8,7.6l0,0h27.3c3,0,6.2-2,7-4.4l3.2-8.7c1.3-3.6-1-6.5-5.3-6.5h-14.2c-1.2,0-1.8-1-1.4-2.2
			l0,0c0.4-1.2,1.8-2.2,3-2.2h21.8l0,0l2.8-7.6l0,0h-27.3C178.3,405.3,175.2,407.3,174.3,409.7z"/>
		<path class="st0" d="M380.5,409.7L380.5,409.7l-3.2,8.7c-1.3,3.6,1,6.5,5.3,6.5h14.2l0,0c1.2,0,1.8,1,1.4,2.2l0,0
			c-0.4,1.2-1.8,2.2-3,2.2h-21.8l0,0l-2.8,7.6l0,0h27.3c3,0,6.2-2,7-4.4l3.2-8.7c1.3-3.6-1-6.5-5.3-6.5h-14.2c-1.2,0-1.8-1-1.4-2.2
			l0,0c0.4-1.2,1.8-2.2,3-2.2H412l0,0l2.8-7.6l0,0h-27.3C384.5,405.3,381.4,407.3,380.5,409.7z"/>
	</g>
	<g>
		<path class="st0" d="M138.4,403.8c-6.2-6.5-14.7-8.7-25.5-6.7c0,0-12.9,3.1-24.4,3.3c-4.9,0.1-9-1.4-12.5-2.2
			c1.9,3,4.8,5.1,8.1,6.3c3.1,1.1,7.3,2.9,5.4,5.8c-2.1,3.3-5.4,0.5-6.3-0.2c-3.1-2.3-4.5-4.1-10.1-7.3c-6.1-3.6-14.6-3.7-23.1-2.8
			c0,0,7,1.5,10.1,4.6c0,0-13.5-2.8-22.3,1.5c12.8,0.5,26.9,2.5,29.3,3.6s1.2,1.9-1.1,2.4c-5.7,1.2-16.2,1.6-22.7-0.2
			c-9.3-2.6-17.2-10.5-30.7-8.4c11.9,2.5,18.2,13.6,31.1,16.2s21.6-2.5,24.6-3.2c2.9-0.7,5.5,0.3,6.2,2.3s-1.9,4.5-5.4,5.2
			c-2.6,0.5-3.5,0.5-8.3,1c-9.9,1-17-0.2-23.3-1.9c-12.1-3.2-20.4-11.1-24.4-13.2c-4-2.1-8.4-3.1-11.8-3.6c0,0,6.5,3.4,9,7.6
			c-5.8-2.2-14.4-3.5-25.7-1.3c-6,1.1-17.4,3.9-31.7,9.5c7.1,2.1,16.1,0.5,20,0.2c21.2-1.7,28.3,2.9,34.9,5.3
			c20.6,7.3,27.7,0.7,29.1,2.9c1,1.6-5.6,4.3-7.4,4.6c-9.3,1.7-13.8,0.1-22.5-2c4.3,4.3,12.4,7.3,21.7,7c9.4-0.5,19.4-1.9,27.3-5.3
			c9.3-3.9,13.2-5.2,17.4-6.4c1.8-0.5,8.3-2.2,9.6-0.4c0.8,1-0.5,1.8-2.5,2.7c-1.6,0.7-3.7,1.4-5.7,2.1c-4.6,1.8-13.1,4.9-15.8,7.2
			c0,0,12.1-1.8,23.8-1.8s19.8,2.5,28.7,5.8c9.5,3.5,17.8,2.3,25-3.6c6.4-5.3,9.4-11.6,9.3-18.9
			C145.7,414.6,143.2,408.7,138.4,403.8z M121.7,441.3c-11.1,0-20-9-20-20s9-20,20-20s20,9,20,20S132.8,441.3,121.7,441.3z"/>
		<path class="st0" d="M121.7,405.5c-8.7,0-15.8,7.1-15.8,15.8c0,8.7,7.1,15.8,15.8,15.8s15.8-7.1,15.8-15.8
			C137.5,412.5,130.5,405.5,121.7,405.5z M129.1,431.8c1.8-2.3,2.8-5.1,2.8-8.2c0-6.4-4.6-11.8-10.7-13c0.6-0.8,1.2-1.5,1.9-2.2
			c6.2,1.1,11,6.5,11,13C134.1,425.6,132.1,429.3,129.1,431.8z"/>
	</g>
</g>
</svg>
